%TF.GenerationSoftware,KiCad,Pcbnew,8.0.3*%
%TF.CreationDate,2024-07-19T22:27:10-04:00*%
%TF.ProjectId,DCPPowerBoard,44435050-6f77-4657-9242-6f6172642e6b,rev?*%
%TF.SameCoordinates,Original*%
%TF.FileFunction,Drillmap*%
%TF.FilePolarity,Positive*%
%FSLAX45Y45*%
G04 Gerber Fmt 4.5, Leading zero omitted, Abs format (unit mm)*
G04 Created by KiCad (PCBNEW 8.0.3) date 2024-07-19 22:27:10*
%MOMM*%
%LPD*%
G01*
G04 APERTURE LIST*
%ADD10C,0.050000*%
%ADD11C,0.200000*%
G04 APERTURE END LIST*
D10*
X6743500Y-4266250D02*
X11823500Y-4266250D01*
X11823500Y-8076250D01*
X6743500Y-8076250D01*
X6743500Y-4266250D01*
D11*
X7001777Y-8390234D02*
X7001777Y-8190234D01*
X7001777Y-8190234D02*
X7049396Y-8190234D01*
X7049396Y-8190234D02*
X7077967Y-8199758D01*
X7077967Y-8199758D02*
X7097015Y-8218805D01*
X7097015Y-8218805D02*
X7106539Y-8237853D01*
X7106539Y-8237853D02*
X7116062Y-8275948D01*
X7116062Y-8275948D02*
X7116062Y-8304519D01*
X7116062Y-8304519D02*
X7106539Y-8342615D01*
X7106539Y-8342615D02*
X7097015Y-8361662D01*
X7097015Y-8361662D02*
X7077967Y-8380710D01*
X7077967Y-8380710D02*
X7049396Y-8390234D01*
X7049396Y-8390234D02*
X7001777Y-8390234D01*
X7201777Y-8390234D02*
X7201777Y-8256900D01*
X7201777Y-8294996D02*
X7211301Y-8275948D01*
X7211301Y-8275948D02*
X7220824Y-8266424D01*
X7220824Y-8266424D02*
X7239872Y-8256900D01*
X7239872Y-8256900D02*
X7258920Y-8256900D01*
X7325586Y-8390234D02*
X7325586Y-8256900D01*
X7325586Y-8190234D02*
X7316062Y-8199758D01*
X7316062Y-8199758D02*
X7325586Y-8209281D01*
X7325586Y-8209281D02*
X7335110Y-8199758D01*
X7335110Y-8199758D02*
X7325586Y-8190234D01*
X7325586Y-8190234D02*
X7325586Y-8209281D01*
X7449396Y-8390234D02*
X7430348Y-8380710D01*
X7430348Y-8380710D02*
X7420824Y-8361662D01*
X7420824Y-8361662D02*
X7420824Y-8190234D01*
X7554158Y-8390234D02*
X7535110Y-8380710D01*
X7535110Y-8380710D02*
X7525586Y-8361662D01*
X7525586Y-8361662D02*
X7525586Y-8190234D01*
X7782729Y-8390234D02*
X7782729Y-8190234D01*
X7782729Y-8190234D02*
X7849396Y-8333091D01*
X7849396Y-8333091D02*
X7916062Y-8190234D01*
X7916062Y-8190234D02*
X7916062Y-8390234D01*
X8097015Y-8390234D02*
X8097015Y-8285472D01*
X8097015Y-8285472D02*
X8087491Y-8266424D01*
X8087491Y-8266424D02*
X8068443Y-8256900D01*
X8068443Y-8256900D02*
X8030348Y-8256900D01*
X8030348Y-8256900D02*
X8011301Y-8266424D01*
X8097015Y-8380710D02*
X8077967Y-8390234D01*
X8077967Y-8390234D02*
X8030348Y-8390234D01*
X8030348Y-8390234D02*
X8011301Y-8380710D01*
X8011301Y-8380710D02*
X8001777Y-8361662D01*
X8001777Y-8361662D02*
X8001777Y-8342615D01*
X8001777Y-8342615D02*
X8011301Y-8323567D01*
X8011301Y-8323567D02*
X8030348Y-8314043D01*
X8030348Y-8314043D02*
X8077967Y-8314043D01*
X8077967Y-8314043D02*
X8097015Y-8304519D01*
X8192253Y-8256900D02*
X8192253Y-8456900D01*
X8192253Y-8266424D02*
X8211301Y-8256900D01*
X8211301Y-8256900D02*
X8249396Y-8256900D01*
X8249396Y-8256900D02*
X8268443Y-8266424D01*
X8268443Y-8266424D02*
X8277967Y-8275948D01*
X8277967Y-8275948D02*
X8287491Y-8294996D01*
X8287491Y-8294996D02*
X8287491Y-8352138D01*
X8287491Y-8352138D02*
X8277967Y-8371186D01*
X8277967Y-8371186D02*
X8268443Y-8380710D01*
X8268443Y-8380710D02*
X8249396Y-8390234D01*
X8249396Y-8390234D02*
X8211301Y-8390234D01*
X8211301Y-8390234D02*
X8192253Y-8380710D01*
X8373205Y-8371186D02*
X8382729Y-8380710D01*
X8382729Y-8380710D02*
X8373205Y-8390234D01*
X8373205Y-8390234D02*
X8363682Y-8380710D01*
X8363682Y-8380710D02*
X8373205Y-8371186D01*
X8373205Y-8371186D02*
X8373205Y-8390234D01*
X8373205Y-8266424D02*
X8382729Y-8275948D01*
X8382729Y-8275948D02*
X8373205Y-8285472D01*
X8373205Y-8285472D02*
X8363682Y-8275948D01*
X8363682Y-8275948D02*
X8373205Y-8266424D01*
X8373205Y-8266424D02*
X8373205Y-8285472D01*
M02*
