%TF.GenerationSoftware,KiCad,Pcbnew,8.0.3*%
%TF.CreationDate,2024-07-19T22:27:10-04:00*%
%TF.ProjectId,DCPPowerBoard,44435050-6f77-4657-9242-6f6172642e6b,rev?*%
%TF.SameCoordinates,Original*%
%TF.FileFunction,Drillmap*%
%TF.FilePolarity,Positive*%
%FSLAX45Y45*%
G04 Gerber Fmt 4.5, Leading zero omitted, Abs format (unit mm)*
G04 Created by KiCad (PCBNEW 8.0.3) date 2024-07-19 22:27:10*
%MOMM*%
%LPD*%
G01*
G04 APERTURE LIST*
%ADD10C,0.050000*%
%ADD11C,0.200000*%
%ADD12C,0.100000*%
G04 APERTURE END LIST*
D10*
X6743500Y-4266250D02*
X11823500Y-4266250D01*
X11823500Y-8076250D01*
X6743500Y-8076250D01*
X6743500Y-4266250D01*
D11*
D12*
X7407000Y-5369000D02*
X7487000Y-5449000D01*
X7487000Y-5369000D02*
X7407000Y-5449000D01*
X7407000Y-6385000D02*
X7487000Y-6465000D01*
X7487000Y-6385000D02*
X7407000Y-6465000D01*
X7812000Y-5369000D02*
X7892000Y-5449000D01*
X7892000Y-5369000D02*
X7812000Y-5449000D01*
X7812000Y-6385000D02*
X7892000Y-6465000D01*
X7892000Y-6385000D02*
X7812000Y-6465000D01*
X8217000Y-5369000D02*
X8297000Y-5449000D01*
X8297000Y-5369000D02*
X8217000Y-5449000D01*
X8217000Y-6385000D02*
X8297000Y-6465000D01*
X8297000Y-6385000D02*
X8217000Y-6465000D01*
X8622000Y-5369000D02*
X8702000Y-5449000D01*
X8702000Y-5369000D02*
X8622000Y-5449000D01*
X8622000Y-6385000D02*
X8702000Y-6465000D01*
X8702000Y-6385000D02*
X8622000Y-6465000D01*
X9027000Y-5369000D02*
X9107000Y-5449000D01*
X9107000Y-5369000D02*
X9027000Y-5449000D01*
X9027000Y-6385000D02*
X9107000Y-6465000D01*
X9107000Y-6385000D02*
X9027000Y-6465000D01*
X9432000Y-5369000D02*
X9512000Y-5449000D01*
X9512000Y-5369000D02*
X9432000Y-5449000D01*
X9432000Y-6385000D02*
X9512000Y-6465000D01*
X9512000Y-6385000D02*
X9432000Y-6465000D01*
X9837000Y-5369000D02*
X9917000Y-5449000D01*
X9917000Y-5369000D02*
X9837000Y-5449000D01*
X9837000Y-6385000D02*
X9917000Y-6465000D01*
X9917000Y-6385000D02*
X9837000Y-6465000D01*
X10242000Y-5369000D02*
X10322000Y-5449000D01*
X10322000Y-5369000D02*
X10242000Y-5449000D01*
X10242000Y-6385000D02*
X10322000Y-6465000D01*
X10322000Y-6385000D02*
X10242000Y-6465000D01*
X10647000Y-5369000D02*
X10727000Y-5449000D01*
X10727000Y-5369000D02*
X10647000Y-5449000D01*
X10647000Y-6385000D02*
X10727000Y-6465000D01*
X10727000Y-6385000D02*
X10647000Y-6465000D01*
X11052000Y-5369000D02*
X11132000Y-5449000D01*
X11132000Y-5369000D02*
X11052000Y-5449000D01*
X11052000Y-6385000D02*
X11132000Y-6465000D01*
X11132000Y-6385000D02*
X11052000Y-6465000D01*
X7855234Y-6925000D02*
G75*
G02*
X7755234Y-6925000I-50000J0D01*
G01*
X7755234Y-6925000D02*
G75*
G02*
X7855234Y-6925000I50000J0D01*
G01*
X8109234Y-6925000D02*
G75*
G02*
X8009234Y-6925000I-50000J0D01*
G01*
X8009234Y-6925000D02*
G75*
G02*
X8109234Y-6925000I50000J0D01*
G01*
X8176000Y-4550000D02*
G75*
G02*
X8076000Y-4550000I-50000J0D01*
G01*
X8076000Y-4550000D02*
G75*
G02*
X8176000Y-4550000I50000J0D01*
G01*
X8363234Y-6925000D02*
G75*
G02*
X8263234Y-6925000I-50000J0D01*
G01*
X8263234Y-6925000D02*
G75*
G02*
X8363234Y-6925000I50000J0D01*
G01*
X8430000Y-4550000D02*
G75*
G02*
X8330000Y-4550000I-50000J0D01*
G01*
X8330000Y-4550000D02*
G75*
G02*
X8430000Y-4550000I50000J0D01*
G01*
X8617234Y-6925000D02*
G75*
G02*
X8517234Y-6925000I-50000J0D01*
G01*
X8517234Y-6925000D02*
G75*
G02*
X8617234Y-6925000I50000J0D01*
G01*
X8684000Y-4550000D02*
G75*
G02*
X8584000Y-4550000I-50000J0D01*
G01*
X8584000Y-4550000D02*
G75*
G02*
X8684000Y-4550000I50000J0D01*
G01*
X8871234Y-6925000D02*
G75*
G02*
X8771234Y-6925000I-50000J0D01*
G01*
X8771234Y-6925000D02*
G75*
G02*
X8871234Y-6925000I50000J0D01*
G01*
X8938000Y-4550000D02*
G75*
G02*
X8838000Y-4550000I-50000J0D01*
G01*
X8838000Y-4550000D02*
G75*
G02*
X8938000Y-4550000I50000J0D01*
G01*
X9192000Y-4550000D02*
G75*
G02*
X9092000Y-4550000I-50000J0D01*
G01*
X9092000Y-4550000D02*
G75*
G02*
X9192000Y-4550000I50000J0D01*
G01*
X9446000Y-4550000D02*
G75*
G02*
X9346000Y-4550000I-50000J0D01*
G01*
X9346000Y-4550000D02*
G75*
G02*
X9446000Y-4550000I50000J0D01*
G01*
X9700000Y-4550000D02*
G75*
G02*
X9600000Y-4550000I-50000J0D01*
G01*
X9600000Y-4550000D02*
G75*
G02*
X9700000Y-4550000I50000J0D01*
G01*
X9954000Y-4550000D02*
G75*
G02*
X9854000Y-4550000I-50000J0D01*
G01*
X9854000Y-4550000D02*
G75*
G02*
X9954000Y-4550000I50000J0D01*
G01*
X10208000Y-4550000D02*
G75*
G02*
X10108000Y-4550000I-50000J0D01*
G01*
X10108000Y-4550000D02*
G75*
G02*
X10208000Y-4550000I50000J0D01*
G01*
X10462000Y-4550000D02*
G75*
G02*
X10362000Y-4550000I-50000J0D01*
G01*
X10362000Y-4550000D02*
G75*
G02*
X10462000Y-4550000I50000J0D01*
G01*
X10546234Y-6926000D02*
G75*
G02*
X10446234Y-6926000I-50000J0D01*
G01*
X10446234Y-6926000D02*
G75*
G02*
X10546234Y-6926000I50000J0D01*
G01*
X10546234Y-7180000D02*
G75*
G02*
X10446234Y-7180000I-50000J0D01*
G01*
X10446234Y-7180000D02*
G75*
G02*
X10546234Y-7180000I50000J0D01*
G01*
D11*
X7058686Y-7661413D02*
X7058686Y-7861413D01*
X6958686Y-7761413D02*
X7158686Y-7761413D01*
X7059787Y-4480736D02*
X7059787Y-4680736D01*
X6959787Y-4580736D02*
X7159787Y-4580736D01*
X11508574Y-4482987D02*
X11508574Y-4682987D01*
X11408574Y-4582987D02*
X11608574Y-4582987D01*
X11509252Y-7662112D02*
X11509252Y-7862112D01*
X11409252Y-7762112D02*
X11609252Y-7762112D01*
X7001777Y-8390234D02*
X7001777Y-8190234D01*
X7001777Y-8190234D02*
X7049396Y-8190234D01*
X7049396Y-8190234D02*
X7077967Y-8199758D01*
X7077967Y-8199758D02*
X7097015Y-8218805D01*
X7097015Y-8218805D02*
X7106539Y-8237853D01*
X7106539Y-8237853D02*
X7116062Y-8275948D01*
X7116062Y-8275948D02*
X7116062Y-8304519D01*
X7116062Y-8304519D02*
X7106539Y-8342615D01*
X7106539Y-8342615D02*
X7097015Y-8361662D01*
X7097015Y-8361662D02*
X7077967Y-8380710D01*
X7077967Y-8380710D02*
X7049396Y-8390234D01*
X7049396Y-8390234D02*
X7001777Y-8390234D01*
X7201777Y-8390234D02*
X7201777Y-8256900D01*
X7201777Y-8294996D02*
X7211301Y-8275948D01*
X7211301Y-8275948D02*
X7220824Y-8266424D01*
X7220824Y-8266424D02*
X7239872Y-8256900D01*
X7239872Y-8256900D02*
X7258920Y-8256900D01*
X7325586Y-8390234D02*
X7325586Y-8256900D01*
X7325586Y-8190234D02*
X7316062Y-8199758D01*
X7316062Y-8199758D02*
X7325586Y-8209281D01*
X7325586Y-8209281D02*
X7335110Y-8199758D01*
X7335110Y-8199758D02*
X7325586Y-8190234D01*
X7325586Y-8190234D02*
X7325586Y-8209281D01*
X7449396Y-8390234D02*
X7430348Y-8380710D01*
X7430348Y-8380710D02*
X7420824Y-8361662D01*
X7420824Y-8361662D02*
X7420824Y-8190234D01*
X7554158Y-8390234D02*
X7535110Y-8380710D01*
X7535110Y-8380710D02*
X7525586Y-8361662D01*
X7525586Y-8361662D02*
X7525586Y-8190234D01*
X7782729Y-8390234D02*
X7782729Y-8190234D01*
X7782729Y-8190234D02*
X7849396Y-8333091D01*
X7849396Y-8333091D02*
X7916062Y-8190234D01*
X7916062Y-8190234D02*
X7916062Y-8390234D01*
X8097015Y-8390234D02*
X8097015Y-8285472D01*
X8097015Y-8285472D02*
X8087491Y-8266424D01*
X8087491Y-8266424D02*
X8068443Y-8256900D01*
X8068443Y-8256900D02*
X8030348Y-8256900D01*
X8030348Y-8256900D02*
X8011301Y-8266424D01*
X8097015Y-8380710D02*
X8077967Y-8390234D01*
X8077967Y-8390234D02*
X8030348Y-8390234D01*
X8030348Y-8390234D02*
X8011301Y-8380710D01*
X8011301Y-8380710D02*
X8001777Y-8361662D01*
X8001777Y-8361662D02*
X8001777Y-8342615D01*
X8001777Y-8342615D02*
X8011301Y-8323567D01*
X8011301Y-8323567D02*
X8030348Y-8314043D01*
X8030348Y-8314043D02*
X8077967Y-8314043D01*
X8077967Y-8314043D02*
X8097015Y-8304519D01*
X8192253Y-8256900D02*
X8192253Y-8456900D01*
X8192253Y-8266424D02*
X8211301Y-8256900D01*
X8211301Y-8256900D02*
X8249396Y-8256900D01*
X8249396Y-8256900D02*
X8268443Y-8266424D01*
X8268443Y-8266424D02*
X8277967Y-8275948D01*
X8277967Y-8275948D02*
X8287491Y-8294996D01*
X8287491Y-8294996D02*
X8287491Y-8352138D01*
X8287491Y-8352138D02*
X8277967Y-8371186D01*
X8277967Y-8371186D02*
X8268443Y-8380710D01*
X8268443Y-8380710D02*
X8249396Y-8390234D01*
X8249396Y-8390234D02*
X8211301Y-8390234D01*
X8211301Y-8390234D02*
X8192253Y-8380710D01*
X8373205Y-8371186D02*
X8382729Y-8380710D01*
X8382729Y-8380710D02*
X8373205Y-8390234D01*
X8373205Y-8390234D02*
X8363682Y-8380710D01*
X8363682Y-8380710D02*
X8373205Y-8371186D01*
X8373205Y-8371186D02*
X8373205Y-8390234D01*
X8373205Y-8266424D02*
X8382729Y-8275948D01*
X8382729Y-8275948D02*
X8373205Y-8285472D01*
X8373205Y-8285472D02*
X8363682Y-8275948D01*
X8363682Y-8275948D02*
X8373205Y-8266424D01*
X8373205Y-8266424D02*
X8373205Y-8285472D01*
D12*
X6661000Y-8678750D02*
X6741000Y-8758750D01*
X6741000Y-8678750D02*
X6661000Y-8758750D01*
D11*
X7039872Y-8610234D02*
X7058920Y-8610234D01*
X7058920Y-8610234D02*
X7077967Y-8619758D01*
X7077967Y-8619758D02*
X7087491Y-8629281D01*
X7087491Y-8629281D02*
X7097015Y-8648329D01*
X7097015Y-8648329D02*
X7106539Y-8686424D01*
X7106539Y-8686424D02*
X7106539Y-8734043D01*
X7106539Y-8734043D02*
X7097015Y-8772139D01*
X7097015Y-8772139D02*
X7087491Y-8791186D01*
X7087491Y-8791186D02*
X7077967Y-8800710D01*
X7077967Y-8800710D02*
X7058920Y-8810234D01*
X7058920Y-8810234D02*
X7039872Y-8810234D01*
X7039872Y-8810234D02*
X7020824Y-8800710D01*
X7020824Y-8800710D02*
X7011301Y-8791186D01*
X7011301Y-8791186D02*
X7001777Y-8772139D01*
X7001777Y-8772139D02*
X6992253Y-8734043D01*
X6992253Y-8734043D02*
X6992253Y-8686424D01*
X6992253Y-8686424D02*
X7001777Y-8648329D01*
X7001777Y-8648329D02*
X7011301Y-8629281D01*
X7011301Y-8629281D02*
X7020824Y-8619758D01*
X7020824Y-8619758D02*
X7039872Y-8610234D01*
X7192253Y-8791186D02*
X7201777Y-8800710D01*
X7201777Y-8800710D02*
X7192253Y-8810234D01*
X7192253Y-8810234D02*
X7182729Y-8800710D01*
X7182729Y-8800710D02*
X7192253Y-8791186D01*
X7192253Y-8791186D02*
X7192253Y-8810234D01*
X7316062Y-8695948D02*
X7297015Y-8686424D01*
X7297015Y-8686424D02*
X7287491Y-8676900D01*
X7287491Y-8676900D02*
X7277967Y-8657853D01*
X7277967Y-8657853D02*
X7277967Y-8648329D01*
X7277967Y-8648329D02*
X7287491Y-8629281D01*
X7287491Y-8629281D02*
X7297015Y-8619758D01*
X7297015Y-8619758D02*
X7316062Y-8610234D01*
X7316062Y-8610234D02*
X7354158Y-8610234D01*
X7354158Y-8610234D02*
X7373205Y-8619758D01*
X7373205Y-8619758D02*
X7382729Y-8629281D01*
X7382729Y-8629281D02*
X7392253Y-8648329D01*
X7392253Y-8648329D02*
X7392253Y-8657853D01*
X7392253Y-8657853D02*
X7382729Y-8676900D01*
X7382729Y-8676900D02*
X7373205Y-8686424D01*
X7373205Y-8686424D02*
X7354158Y-8695948D01*
X7354158Y-8695948D02*
X7316062Y-8695948D01*
X7316062Y-8695948D02*
X7297015Y-8705472D01*
X7297015Y-8705472D02*
X7287491Y-8714996D01*
X7287491Y-8714996D02*
X7277967Y-8734043D01*
X7277967Y-8734043D02*
X7277967Y-8772139D01*
X7277967Y-8772139D02*
X7287491Y-8791186D01*
X7287491Y-8791186D02*
X7297015Y-8800710D01*
X7297015Y-8800710D02*
X7316062Y-8810234D01*
X7316062Y-8810234D02*
X7354158Y-8810234D01*
X7354158Y-8810234D02*
X7373205Y-8800710D01*
X7373205Y-8800710D02*
X7382729Y-8791186D01*
X7382729Y-8791186D02*
X7392253Y-8772139D01*
X7392253Y-8772139D02*
X7392253Y-8734043D01*
X7392253Y-8734043D02*
X7382729Y-8714996D01*
X7382729Y-8714996D02*
X7373205Y-8705472D01*
X7373205Y-8705472D02*
X7354158Y-8695948D01*
X7516062Y-8610234D02*
X7535110Y-8610234D01*
X7535110Y-8610234D02*
X7554158Y-8619758D01*
X7554158Y-8619758D02*
X7563682Y-8629281D01*
X7563682Y-8629281D02*
X7573205Y-8648329D01*
X7573205Y-8648329D02*
X7582729Y-8686424D01*
X7582729Y-8686424D02*
X7582729Y-8734043D01*
X7582729Y-8734043D02*
X7573205Y-8772139D01*
X7573205Y-8772139D02*
X7563682Y-8791186D01*
X7563682Y-8791186D02*
X7554158Y-8800710D01*
X7554158Y-8800710D02*
X7535110Y-8810234D01*
X7535110Y-8810234D02*
X7516062Y-8810234D01*
X7516062Y-8810234D02*
X7497015Y-8800710D01*
X7497015Y-8800710D02*
X7487491Y-8791186D01*
X7487491Y-8791186D02*
X7477967Y-8772139D01*
X7477967Y-8772139D02*
X7468443Y-8734043D01*
X7468443Y-8734043D02*
X7468443Y-8686424D01*
X7468443Y-8686424D02*
X7477967Y-8648329D01*
X7477967Y-8648329D02*
X7487491Y-8629281D01*
X7487491Y-8629281D02*
X7497015Y-8619758D01*
X7497015Y-8619758D02*
X7516062Y-8610234D01*
X7706539Y-8610234D02*
X7725586Y-8610234D01*
X7725586Y-8610234D02*
X7744634Y-8619758D01*
X7744634Y-8619758D02*
X7754158Y-8629281D01*
X7754158Y-8629281D02*
X7763682Y-8648329D01*
X7763682Y-8648329D02*
X7773205Y-8686424D01*
X7773205Y-8686424D02*
X7773205Y-8734043D01*
X7773205Y-8734043D02*
X7763682Y-8772139D01*
X7763682Y-8772139D02*
X7754158Y-8791186D01*
X7754158Y-8791186D02*
X7744634Y-8800710D01*
X7744634Y-8800710D02*
X7725586Y-8810234D01*
X7725586Y-8810234D02*
X7706539Y-8810234D01*
X7706539Y-8810234D02*
X7687491Y-8800710D01*
X7687491Y-8800710D02*
X7677967Y-8791186D01*
X7677967Y-8791186D02*
X7668443Y-8772139D01*
X7668443Y-8772139D02*
X7658920Y-8734043D01*
X7658920Y-8734043D02*
X7658920Y-8686424D01*
X7658920Y-8686424D02*
X7668443Y-8648329D01*
X7668443Y-8648329D02*
X7677967Y-8629281D01*
X7677967Y-8629281D02*
X7687491Y-8619758D01*
X7687491Y-8619758D02*
X7706539Y-8610234D01*
X7858920Y-8810234D02*
X7858920Y-8676900D01*
X7858920Y-8695948D02*
X7868443Y-8686424D01*
X7868443Y-8686424D02*
X7887491Y-8676900D01*
X7887491Y-8676900D02*
X7916063Y-8676900D01*
X7916063Y-8676900D02*
X7935110Y-8686424D01*
X7935110Y-8686424D02*
X7944634Y-8705472D01*
X7944634Y-8705472D02*
X7944634Y-8810234D01*
X7944634Y-8705472D02*
X7954158Y-8686424D01*
X7954158Y-8686424D02*
X7973205Y-8676900D01*
X7973205Y-8676900D02*
X8001777Y-8676900D01*
X8001777Y-8676900D02*
X8020824Y-8686424D01*
X8020824Y-8686424D02*
X8030348Y-8705472D01*
X8030348Y-8705472D02*
X8030348Y-8810234D01*
X8125586Y-8810234D02*
X8125586Y-8676900D01*
X8125586Y-8695948D02*
X8135110Y-8686424D01*
X8135110Y-8686424D02*
X8154158Y-8676900D01*
X8154158Y-8676900D02*
X8182729Y-8676900D01*
X8182729Y-8676900D02*
X8201777Y-8686424D01*
X8201777Y-8686424D02*
X8211301Y-8705472D01*
X8211301Y-8705472D02*
X8211301Y-8810234D01*
X8211301Y-8705472D02*
X8220824Y-8686424D01*
X8220824Y-8686424D02*
X8239872Y-8676900D01*
X8239872Y-8676900D02*
X8268443Y-8676900D01*
X8268443Y-8676900D02*
X8287491Y-8686424D01*
X8287491Y-8686424D02*
X8297015Y-8705472D01*
X8297015Y-8705472D02*
X8297015Y-8810234D01*
X8687491Y-8600710D02*
X8516063Y-8857853D01*
X8944634Y-8610234D02*
X8963682Y-8610234D01*
X8963682Y-8610234D02*
X8982729Y-8619758D01*
X8982729Y-8619758D02*
X8992253Y-8629281D01*
X8992253Y-8629281D02*
X9001777Y-8648329D01*
X9001777Y-8648329D02*
X9011301Y-8686424D01*
X9011301Y-8686424D02*
X9011301Y-8734043D01*
X9011301Y-8734043D02*
X9001777Y-8772139D01*
X9001777Y-8772139D02*
X8992253Y-8791186D01*
X8992253Y-8791186D02*
X8982729Y-8800710D01*
X8982729Y-8800710D02*
X8963682Y-8810234D01*
X8963682Y-8810234D02*
X8944634Y-8810234D01*
X8944634Y-8810234D02*
X8925587Y-8800710D01*
X8925587Y-8800710D02*
X8916063Y-8791186D01*
X8916063Y-8791186D02*
X8906539Y-8772139D01*
X8906539Y-8772139D02*
X8897015Y-8734043D01*
X8897015Y-8734043D02*
X8897015Y-8686424D01*
X8897015Y-8686424D02*
X8906539Y-8648329D01*
X8906539Y-8648329D02*
X8916063Y-8629281D01*
X8916063Y-8629281D02*
X8925587Y-8619758D01*
X8925587Y-8619758D02*
X8944634Y-8610234D01*
X9097015Y-8791186D02*
X9106539Y-8800710D01*
X9106539Y-8800710D02*
X9097015Y-8810234D01*
X9097015Y-8810234D02*
X9087491Y-8800710D01*
X9087491Y-8800710D02*
X9097015Y-8791186D01*
X9097015Y-8791186D02*
X9097015Y-8810234D01*
X9230348Y-8610234D02*
X9249396Y-8610234D01*
X9249396Y-8610234D02*
X9268444Y-8619758D01*
X9268444Y-8619758D02*
X9277968Y-8629281D01*
X9277968Y-8629281D02*
X9287491Y-8648329D01*
X9287491Y-8648329D02*
X9297015Y-8686424D01*
X9297015Y-8686424D02*
X9297015Y-8734043D01*
X9297015Y-8734043D02*
X9287491Y-8772139D01*
X9287491Y-8772139D02*
X9277968Y-8791186D01*
X9277968Y-8791186D02*
X9268444Y-8800710D01*
X9268444Y-8800710D02*
X9249396Y-8810234D01*
X9249396Y-8810234D02*
X9230348Y-8810234D01*
X9230348Y-8810234D02*
X9211301Y-8800710D01*
X9211301Y-8800710D02*
X9201777Y-8791186D01*
X9201777Y-8791186D02*
X9192253Y-8772139D01*
X9192253Y-8772139D02*
X9182729Y-8734043D01*
X9182729Y-8734043D02*
X9182729Y-8686424D01*
X9182729Y-8686424D02*
X9192253Y-8648329D01*
X9192253Y-8648329D02*
X9201777Y-8629281D01*
X9201777Y-8629281D02*
X9211301Y-8619758D01*
X9211301Y-8619758D02*
X9230348Y-8610234D01*
X9363682Y-8610234D02*
X9487491Y-8610234D01*
X9487491Y-8610234D02*
X9420825Y-8686424D01*
X9420825Y-8686424D02*
X9449396Y-8686424D01*
X9449396Y-8686424D02*
X9468444Y-8695948D01*
X9468444Y-8695948D02*
X9477968Y-8705472D01*
X9477968Y-8705472D02*
X9487491Y-8724520D01*
X9487491Y-8724520D02*
X9487491Y-8772139D01*
X9487491Y-8772139D02*
X9477968Y-8791186D01*
X9477968Y-8791186D02*
X9468444Y-8800710D01*
X9468444Y-8800710D02*
X9449396Y-8810234D01*
X9449396Y-8810234D02*
X9392253Y-8810234D01*
X9392253Y-8810234D02*
X9373206Y-8800710D01*
X9373206Y-8800710D02*
X9363682Y-8791186D01*
X9677968Y-8810234D02*
X9563682Y-8810234D01*
X9620825Y-8810234D02*
X9620825Y-8610234D01*
X9620825Y-8610234D02*
X9601777Y-8638805D01*
X9601777Y-8638805D02*
X9582729Y-8657853D01*
X9582729Y-8657853D02*
X9563682Y-8667377D01*
X9858920Y-8610234D02*
X9763682Y-8610234D01*
X9763682Y-8610234D02*
X9754158Y-8705472D01*
X9754158Y-8705472D02*
X9763682Y-8695948D01*
X9763682Y-8695948D02*
X9782729Y-8686424D01*
X9782729Y-8686424D02*
X9830349Y-8686424D01*
X9830349Y-8686424D02*
X9849396Y-8695948D01*
X9849396Y-8695948D02*
X9858920Y-8705472D01*
X9858920Y-8705472D02*
X9868444Y-8724520D01*
X9868444Y-8724520D02*
X9868444Y-8772139D01*
X9868444Y-8772139D02*
X9858920Y-8791186D01*
X9858920Y-8791186D02*
X9849396Y-8800710D01*
X9849396Y-8800710D02*
X9830349Y-8810234D01*
X9830349Y-8810234D02*
X9782729Y-8810234D01*
X9782729Y-8810234D02*
X9763682Y-8800710D01*
X9763682Y-8800710D02*
X9754158Y-8791186D01*
X9944634Y-8610234D02*
X9944634Y-8648329D01*
X10020825Y-8610234D02*
X10020825Y-8648329D01*
X10316063Y-8886424D02*
X10306539Y-8876900D01*
X10306539Y-8876900D02*
X10287491Y-8848329D01*
X10287491Y-8848329D02*
X10277968Y-8829281D01*
X10277968Y-8829281D02*
X10268444Y-8800710D01*
X10268444Y-8800710D02*
X10258920Y-8753091D01*
X10258920Y-8753091D02*
X10258920Y-8714996D01*
X10258920Y-8714996D02*
X10268444Y-8667377D01*
X10268444Y-8667377D02*
X10277968Y-8638805D01*
X10277968Y-8638805D02*
X10287491Y-8619758D01*
X10287491Y-8619758D02*
X10306539Y-8591186D01*
X10306539Y-8591186D02*
X10316063Y-8581662D01*
X10382730Y-8629281D02*
X10392253Y-8619758D01*
X10392253Y-8619758D02*
X10411301Y-8610234D01*
X10411301Y-8610234D02*
X10458920Y-8610234D01*
X10458920Y-8610234D02*
X10477968Y-8619758D01*
X10477968Y-8619758D02*
X10487491Y-8629281D01*
X10487491Y-8629281D02*
X10497015Y-8648329D01*
X10497015Y-8648329D02*
X10497015Y-8667377D01*
X10497015Y-8667377D02*
X10487491Y-8695948D01*
X10487491Y-8695948D02*
X10373206Y-8810234D01*
X10373206Y-8810234D02*
X10497015Y-8810234D01*
X10620825Y-8610234D02*
X10639872Y-8610234D01*
X10639872Y-8610234D02*
X10658920Y-8619758D01*
X10658920Y-8619758D02*
X10668444Y-8629281D01*
X10668444Y-8629281D02*
X10677968Y-8648329D01*
X10677968Y-8648329D02*
X10687491Y-8686424D01*
X10687491Y-8686424D02*
X10687491Y-8734043D01*
X10687491Y-8734043D02*
X10677968Y-8772139D01*
X10677968Y-8772139D02*
X10668444Y-8791186D01*
X10668444Y-8791186D02*
X10658920Y-8800710D01*
X10658920Y-8800710D02*
X10639872Y-8810234D01*
X10639872Y-8810234D02*
X10620825Y-8810234D01*
X10620825Y-8810234D02*
X10601777Y-8800710D01*
X10601777Y-8800710D02*
X10592253Y-8791186D01*
X10592253Y-8791186D02*
X10582730Y-8772139D01*
X10582730Y-8772139D02*
X10573206Y-8734043D01*
X10573206Y-8734043D02*
X10573206Y-8686424D01*
X10573206Y-8686424D02*
X10582730Y-8648329D01*
X10582730Y-8648329D02*
X10592253Y-8629281D01*
X10592253Y-8629281D02*
X10601777Y-8619758D01*
X10601777Y-8619758D02*
X10620825Y-8610234D01*
X10925587Y-8810234D02*
X10925587Y-8610234D01*
X11011301Y-8810234D02*
X11011301Y-8705472D01*
X11011301Y-8705472D02*
X11001777Y-8686424D01*
X11001777Y-8686424D02*
X10982730Y-8676900D01*
X10982730Y-8676900D02*
X10954158Y-8676900D01*
X10954158Y-8676900D02*
X10935111Y-8686424D01*
X10935111Y-8686424D02*
X10925587Y-8695948D01*
X11135111Y-8810234D02*
X11116063Y-8800710D01*
X11116063Y-8800710D02*
X11106539Y-8791186D01*
X11106539Y-8791186D02*
X11097015Y-8772139D01*
X11097015Y-8772139D02*
X11097015Y-8714996D01*
X11097015Y-8714996D02*
X11106539Y-8695948D01*
X11106539Y-8695948D02*
X11116063Y-8686424D01*
X11116063Y-8686424D02*
X11135111Y-8676900D01*
X11135111Y-8676900D02*
X11163682Y-8676900D01*
X11163682Y-8676900D02*
X11182730Y-8686424D01*
X11182730Y-8686424D02*
X11192253Y-8695948D01*
X11192253Y-8695948D02*
X11201777Y-8714996D01*
X11201777Y-8714996D02*
X11201777Y-8772139D01*
X11201777Y-8772139D02*
X11192253Y-8791186D01*
X11192253Y-8791186D02*
X11182730Y-8800710D01*
X11182730Y-8800710D02*
X11163682Y-8810234D01*
X11163682Y-8810234D02*
X11135111Y-8810234D01*
X11316063Y-8810234D02*
X11297015Y-8800710D01*
X11297015Y-8800710D02*
X11287491Y-8781662D01*
X11287491Y-8781662D02*
X11287491Y-8610234D01*
X11468444Y-8800710D02*
X11449396Y-8810234D01*
X11449396Y-8810234D02*
X11411301Y-8810234D01*
X11411301Y-8810234D02*
X11392253Y-8800710D01*
X11392253Y-8800710D02*
X11382730Y-8781662D01*
X11382730Y-8781662D02*
X11382730Y-8705472D01*
X11382730Y-8705472D02*
X11392253Y-8686424D01*
X11392253Y-8686424D02*
X11411301Y-8676900D01*
X11411301Y-8676900D02*
X11449396Y-8676900D01*
X11449396Y-8676900D02*
X11468444Y-8686424D01*
X11468444Y-8686424D02*
X11477968Y-8705472D01*
X11477968Y-8705472D02*
X11477968Y-8724520D01*
X11477968Y-8724520D02*
X11382730Y-8743567D01*
X11554158Y-8800710D02*
X11573206Y-8810234D01*
X11573206Y-8810234D02*
X11611301Y-8810234D01*
X11611301Y-8810234D02*
X11630349Y-8800710D01*
X11630349Y-8800710D02*
X11639872Y-8781662D01*
X11639872Y-8781662D02*
X11639872Y-8772139D01*
X11639872Y-8772139D02*
X11630349Y-8753091D01*
X11630349Y-8753091D02*
X11611301Y-8743567D01*
X11611301Y-8743567D02*
X11582730Y-8743567D01*
X11582730Y-8743567D02*
X11563682Y-8734043D01*
X11563682Y-8734043D02*
X11554158Y-8714996D01*
X11554158Y-8714996D02*
X11554158Y-8705472D01*
X11554158Y-8705472D02*
X11563682Y-8686424D01*
X11563682Y-8686424D02*
X11582730Y-8676900D01*
X11582730Y-8676900D02*
X11611301Y-8676900D01*
X11611301Y-8676900D02*
X11630349Y-8686424D01*
X11706539Y-8886424D02*
X11716063Y-8876900D01*
X11716063Y-8876900D02*
X11735111Y-8848329D01*
X11735111Y-8848329D02*
X11744634Y-8829281D01*
X11744634Y-8829281D02*
X11754158Y-8800710D01*
X11754158Y-8800710D02*
X11763682Y-8753091D01*
X11763682Y-8753091D02*
X11763682Y-8714996D01*
X11763682Y-8714996D02*
X11754158Y-8667377D01*
X11754158Y-8667377D02*
X11744634Y-8638805D01*
X11744634Y-8638805D02*
X11735111Y-8619758D01*
X11735111Y-8619758D02*
X11716063Y-8591186D01*
X11716063Y-8591186D02*
X11706539Y-8581662D01*
D12*
X6741000Y-8982750D02*
G75*
G02*
X6641000Y-8982750I-50000J0D01*
G01*
X6641000Y-8982750D02*
G75*
G02*
X6741000Y-8982750I50000J0D01*
G01*
D11*
X7106539Y-9074234D02*
X6992253Y-9074234D01*
X7049396Y-9074234D02*
X7049396Y-8874234D01*
X7049396Y-8874234D02*
X7030348Y-8902805D01*
X7030348Y-8902805D02*
X7011301Y-8921853D01*
X7011301Y-8921853D02*
X6992253Y-8931377D01*
X7192253Y-9055186D02*
X7201777Y-9064710D01*
X7201777Y-9064710D02*
X7192253Y-9074234D01*
X7192253Y-9074234D02*
X7182729Y-9064710D01*
X7182729Y-9064710D02*
X7192253Y-9055186D01*
X7192253Y-9055186D02*
X7192253Y-9074234D01*
X7325586Y-8874234D02*
X7344634Y-8874234D01*
X7344634Y-8874234D02*
X7363682Y-8883758D01*
X7363682Y-8883758D02*
X7373205Y-8893281D01*
X7373205Y-8893281D02*
X7382729Y-8912329D01*
X7382729Y-8912329D02*
X7392253Y-8950424D01*
X7392253Y-8950424D02*
X7392253Y-8998043D01*
X7392253Y-8998043D02*
X7382729Y-9036139D01*
X7382729Y-9036139D02*
X7373205Y-9055186D01*
X7373205Y-9055186D02*
X7363682Y-9064710D01*
X7363682Y-9064710D02*
X7344634Y-9074234D01*
X7344634Y-9074234D02*
X7325586Y-9074234D01*
X7325586Y-9074234D02*
X7306539Y-9064710D01*
X7306539Y-9064710D02*
X7297015Y-9055186D01*
X7297015Y-9055186D02*
X7287491Y-9036139D01*
X7287491Y-9036139D02*
X7277967Y-8998043D01*
X7277967Y-8998043D02*
X7277967Y-8950424D01*
X7277967Y-8950424D02*
X7287491Y-8912329D01*
X7287491Y-8912329D02*
X7297015Y-8893281D01*
X7297015Y-8893281D02*
X7306539Y-8883758D01*
X7306539Y-8883758D02*
X7325586Y-8874234D01*
X7516062Y-8874234D02*
X7535110Y-8874234D01*
X7535110Y-8874234D02*
X7554158Y-8883758D01*
X7554158Y-8883758D02*
X7563682Y-8893281D01*
X7563682Y-8893281D02*
X7573205Y-8912329D01*
X7573205Y-8912329D02*
X7582729Y-8950424D01*
X7582729Y-8950424D02*
X7582729Y-8998043D01*
X7582729Y-8998043D02*
X7573205Y-9036139D01*
X7573205Y-9036139D02*
X7563682Y-9055186D01*
X7563682Y-9055186D02*
X7554158Y-9064710D01*
X7554158Y-9064710D02*
X7535110Y-9074234D01*
X7535110Y-9074234D02*
X7516062Y-9074234D01*
X7516062Y-9074234D02*
X7497015Y-9064710D01*
X7497015Y-9064710D02*
X7487491Y-9055186D01*
X7487491Y-9055186D02*
X7477967Y-9036139D01*
X7477967Y-9036139D02*
X7468443Y-8998043D01*
X7468443Y-8998043D02*
X7468443Y-8950424D01*
X7468443Y-8950424D02*
X7477967Y-8912329D01*
X7477967Y-8912329D02*
X7487491Y-8893281D01*
X7487491Y-8893281D02*
X7497015Y-8883758D01*
X7497015Y-8883758D02*
X7516062Y-8874234D01*
X7706539Y-8874234D02*
X7725586Y-8874234D01*
X7725586Y-8874234D02*
X7744634Y-8883758D01*
X7744634Y-8883758D02*
X7754158Y-8893281D01*
X7754158Y-8893281D02*
X7763682Y-8912329D01*
X7763682Y-8912329D02*
X7773205Y-8950424D01*
X7773205Y-8950424D02*
X7773205Y-8998043D01*
X7773205Y-8998043D02*
X7763682Y-9036139D01*
X7763682Y-9036139D02*
X7754158Y-9055186D01*
X7754158Y-9055186D02*
X7744634Y-9064710D01*
X7744634Y-9064710D02*
X7725586Y-9074234D01*
X7725586Y-9074234D02*
X7706539Y-9074234D01*
X7706539Y-9074234D02*
X7687491Y-9064710D01*
X7687491Y-9064710D02*
X7677967Y-9055186D01*
X7677967Y-9055186D02*
X7668443Y-9036139D01*
X7668443Y-9036139D02*
X7658920Y-8998043D01*
X7658920Y-8998043D02*
X7658920Y-8950424D01*
X7658920Y-8950424D02*
X7668443Y-8912329D01*
X7668443Y-8912329D02*
X7677967Y-8893281D01*
X7677967Y-8893281D02*
X7687491Y-8883758D01*
X7687491Y-8883758D02*
X7706539Y-8874234D01*
X7858920Y-9074234D02*
X7858920Y-8940900D01*
X7858920Y-8959948D02*
X7868443Y-8950424D01*
X7868443Y-8950424D02*
X7887491Y-8940900D01*
X7887491Y-8940900D02*
X7916063Y-8940900D01*
X7916063Y-8940900D02*
X7935110Y-8950424D01*
X7935110Y-8950424D02*
X7944634Y-8969472D01*
X7944634Y-8969472D02*
X7944634Y-9074234D01*
X7944634Y-8969472D02*
X7954158Y-8950424D01*
X7954158Y-8950424D02*
X7973205Y-8940900D01*
X7973205Y-8940900D02*
X8001777Y-8940900D01*
X8001777Y-8940900D02*
X8020824Y-8950424D01*
X8020824Y-8950424D02*
X8030348Y-8969472D01*
X8030348Y-8969472D02*
X8030348Y-9074234D01*
X8125586Y-9074234D02*
X8125586Y-8940900D01*
X8125586Y-8959948D02*
X8135110Y-8950424D01*
X8135110Y-8950424D02*
X8154158Y-8940900D01*
X8154158Y-8940900D02*
X8182729Y-8940900D01*
X8182729Y-8940900D02*
X8201777Y-8950424D01*
X8201777Y-8950424D02*
X8211301Y-8969472D01*
X8211301Y-8969472D02*
X8211301Y-9074234D01*
X8211301Y-8969472D02*
X8220824Y-8950424D01*
X8220824Y-8950424D02*
X8239872Y-8940900D01*
X8239872Y-8940900D02*
X8268443Y-8940900D01*
X8268443Y-8940900D02*
X8287491Y-8950424D01*
X8287491Y-8950424D02*
X8297015Y-8969472D01*
X8297015Y-8969472D02*
X8297015Y-9074234D01*
X8687491Y-8864710D02*
X8516063Y-9121853D01*
X8944634Y-8874234D02*
X8963682Y-8874234D01*
X8963682Y-8874234D02*
X8982729Y-8883758D01*
X8982729Y-8883758D02*
X8992253Y-8893281D01*
X8992253Y-8893281D02*
X9001777Y-8912329D01*
X9001777Y-8912329D02*
X9011301Y-8950424D01*
X9011301Y-8950424D02*
X9011301Y-8998043D01*
X9011301Y-8998043D02*
X9001777Y-9036139D01*
X9001777Y-9036139D02*
X8992253Y-9055186D01*
X8992253Y-9055186D02*
X8982729Y-9064710D01*
X8982729Y-9064710D02*
X8963682Y-9074234D01*
X8963682Y-9074234D02*
X8944634Y-9074234D01*
X8944634Y-9074234D02*
X8925587Y-9064710D01*
X8925587Y-9064710D02*
X8916063Y-9055186D01*
X8916063Y-9055186D02*
X8906539Y-9036139D01*
X8906539Y-9036139D02*
X8897015Y-8998043D01*
X8897015Y-8998043D02*
X8897015Y-8950424D01*
X8897015Y-8950424D02*
X8906539Y-8912329D01*
X8906539Y-8912329D02*
X8916063Y-8893281D01*
X8916063Y-8893281D02*
X8925587Y-8883758D01*
X8925587Y-8883758D02*
X8944634Y-8874234D01*
X9097015Y-9055186D02*
X9106539Y-9064710D01*
X9106539Y-9064710D02*
X9097015Y-9074234D01*
X9097015Y-9074234D02*
X9087491Y-9064710D01*
X9087491Y-9064710D02*
X9097015Y-9055186D01*
X9097015Y-9055186D02*
X9097015Y-9074234D01*
X9230348Y-8874234D02*
X9249396Y-8874234D01*
X9249396Y-8874234D02*
X9268444Y-8883758D01*
X9268444Y-8883758D02*
X9277968Y-8893281D01*
X9277968Y-8893281D02*
X9287491Y-8912329D01*
X9287491Y-8912329D02*
X9297015Y-8950424D01*
X9297015Y-8950424D02*
X9297015Y-8998043D01*
X9297015Y-8998043D02*
X9287491Y-9036139D01*
X9287491Y-9036139D02*
X9277968Y-9055186D01*
X9277968Y-9055186D02*
X9268444Y-9064710D01*
X9268444Y-9064710D02*
X9249396Y-9074234D01*
X9249396Y-9074234D02*
X9230348Y-9074234D01*
X9230348Y-9074234D02*
X9211301Y-9064710D01*
X9211301Y-9064710D02*
X9201777Y-9055186D01*
X9201777Y-9055186D02*
X9192253Y-9036139D01*
X9192253Y-9036139D02*
X9182729Y-8998043D01*
X9182729Y-8998043D02*
X9182729Y-8950424D01*
X9182729Y-8950424D02*
X9192253Y-8912329D01*
X9192253Y-8912329D02*
X9201777Y-8893281D01*
X9201777Y-8893281D02*
X9211301Y-8883758D01*
X9211301Y-8883758D02*
X9230348Y-8874234D01*
X9363682Y-8874234D02*
X9487491Y-8874234D01*
X9487491Y-8874234D02*
X9420825Y-8950424D01*
X9420825Y-8950424D02*
X9449396Y-8950424D01*
X9449396Y-8950424D02*
X9468444Y-8959948D01*
X9468444Y-8959948D02*
X9477968Y-8969472D01*
X9477968Y-8969472D02*
X9487491Y-8988520D01*
X9487491Y-8988520D02*
X9487491Y-9036139D01*
X9487491Y-9036139D02*
X9477968Y-9055186D01*
X9477968Y-9055186D02*
X9468444Y-9064710D01*
X9468444Y-9064710D02*
X9449396Y-9074234D01*
X9449396Y-9074234D02*
X9392253Y-9074234D01*
X9392253Y-9074234D02*
X9373206Y-9064710D01*
X9373206Y-9064710D02*
X9363682Y-9055186D01*
X9582729Y-9074234D02*
X9620825Y-9074234D01*
X9620825Y-9074234D02*
X9639872Y-9064710D01*
X9639872Y-9064710D02*
X9649396Y-9055186D01*
X9649396Y-9055186D02*
X9668444Y-9026615D01*
X9668444Y-9026615D02*
X9677968Y-8988520D01*
X9677968Y-8988520D02*
X9677968Y-8912329D01*
X9677968Y-8912329D02*
X9668444Y-8893281D01*
X9668444Y-8893281D02*
X9658920Y-8883758D01*
X9658920Y-8883758D02*
X9639872Y-8874234D01*
X9639872Y-8874234D02*
X9601777Y-8874234D01*
X9601777Y-8874234D02*
X9582729Y-8883758D01*
X9582729Y-8883758D02*
X9573206Y-8893281D01*
X9573206Y-8893281D02*
X9563682Y-8912329D01*
X9563682Y-8912329D02*
X9563682Y-8959948D01*
X9563682Y-8959948D02*
X9573206Y-8978996D01*
X9573206Y-8978996D02*
X9582729Y-8988520D01*
X9582729Y-8988520D02*
X9601777Y-8998043D01*
X9601777Y-8998043D02*
X9639872Y-8998043D01*
X9639872Y-8998043D02*
X9658920Y-8988520D01*
X9658920Y-8988520D02*
X9668444Y-8978996D01*
X9668444Y-8978996D02*
X9677968Y-8959948D01*
X9849396Y-8940900D02*
X9849396Y-9074234D01*
X9801777Y-8864710D02*
X9754158Y-9007567D01*
X9754158Y-9007567D02*
X9877968Y-9007567D01*
X9944634Y-8874234D02*
X9944634Y-8912329D01*
X10020825Y-8874234D02*
X10020825Y-8912329D01*
X10316063Y-9150424D02*
X10306539Y-9140900D01*
X10306539Y-9140900D02*
X10287491Y-9112329D01*
X10287491Y-9112329D02*
X10277968Y-9093281D01*
X10277968Y-9093281D02*
X10268444Y-9064710D01*
X10268444Y-9064710D02*
X10258920Y-9017091D01*
X10258920Y-9017091D02*
X10258920Y-8978996D01*
X10258920Y-8978996D02*
X10268444Y-8931377D01*
X10268444Y-8931377D02*
X10277968Y-8902805D01*
X10277968Y-8902805D02*
X10287491Y-8883758D01*
X10287491Y-8883758D02*
X10306539Y-8855186D01*
X10306539Y-8855186D02*
X10316063Y-8845662D01*
X10497015Y-9074234D02*
X10382730Y-9074234D01*
X10439872Y-9074234D02*
X10439872Y-8874234D01*
X10439872Y-8874234D02*
X10420825Y-8902805D01*
X10420825Y-8902805D02*
X10401777Y-8921853D01*
X10401777Y-8921853D02*
X10382730Y-8931377D01*
X10563682Y-8874234D02*
X10697015Y-8874234D01*
X10697015Y-8874234D02*
X10611301Y-9074234D01*
X10925587Y-9074234D02*
X10925587Y-8874234D01*
X11011301Y-9074234D02*
X11011301Y-8969472D01*
X11011301Y-8969472D02*
X11001777Y-8950424D01*
X11001777Y-8950424D02*
X10982730Y-8940900D01*
X10982730Y-8940900D02*
X10954158Y-8940900D01*
X10954158Y-8940900D02*
X10935111Y-8950424D01*
X10935111Y-8950424D02*
X10925587Y-8959948D01*
X11135111Y-9074234D02*
X11116063Y-9064710D01*
X11116063Y-9064710D02*
X11106539Y-9055186D01*
X11106539Y-9055186D02*
X11097015Y-9036139D01*
X11097015Y-9036139D02*
X11097015Y-8978996D01*
X11097015Y-8978996D02*
X11106539Y-8959948D01*
X11106539Y-8959948D02*
X11116063Y-8950424D01*
X11116063Y-8950424D02*
X11135111Y-8940900D01*
X11135111Y-8940900D02*
X11163682Y-8940900D01*
X11163682Y-8940900D02*
X11182730Y-8950424D01*
X11182730Y-8950424D02*
X11192253Y-8959948D01*
X11192253Y-8959948D02*
X11201777Y-8978996D01*
X11201777Y-8978996D02*
X11201777Y-9036139D01*
X11201777Y-9036139D02*
X11192253Y-9055186D01*
X11192253Y-9055186D02*
X11182730Y-9064710D01*
X11182730Y-9064710D02*
X11163682Y-9074234D01*
X11163682Y-9074234D02*
X11135111Y-9074234D01*
X11316063Y-9074234D02*
X11297015Y-9064710D01*
X11297015Y-9064710D02*
X11287491Y-9045662D01*
X11287491Y-9045662D02*
X11287491Y-8874234D01*
X11468444Y-9064710D02*
X11449396Y-9074234D01*
X11449396Y-9074234D02*
X11411301Y-9074234D01*
X11411301Y-9074234D02*
X11392253Y-9064710D01*
X11392253Y-9064710D02*
X11382730Y-9045662D01*
X11382730Y-9045662D02*
X11382730Y-8969472D01*
X11382730Y-8969472D02*
X11392253Y-8950424D01*
X11392253Y-8950424D02*
X11411301Y-8940900D01*
X11411301Y-8940900D02*
X11449396Y-8940900D01*
X11449396Y-8940900D02*
X11468444Y-8950424D01*
X11468444Y-8950424D02*
X11477968Y-8969472D01*
X11477968Y-8969472D02*
X11477968Y-8988520D01*
X11477968Y-8988520D02*
X11382730Y-9007567D01*
X11554158Y-9064710D02*
X11573206Y-9074234D01*
X11573206Y-9074234D02*
X11611301Y-9074234D01*
X11611301Y-9074234D02*
X11630349Y-9064710D01*
X11630349Y-9064710D02*
X11639872Y-9045662D01*
X11639872Y-9045662D02*
X11639872Y-9036139D01*
X11639872Y-9036139D02*
X11630349Y-9017091D01*
X11630349Y-9017091D02*
X11611301Y-9007567D01*
X11611301Y-9007567D02*
X11582730Y-9007567D01*
X11582730Y-9007567D02*
X11563682Y-8998043D01*
X11563682Y-8998043D02*
X11554158Y-8978996D01*
X11554158Y-8978996D02*
X11554158Y-8969472D01*
X11554158Y-8969472D02*
X11563682Y-8950424D01*
X11563682Y-8950424D02*
X11582730Y-8940900D01*
X11582730Y-8940900D02*
X11611301Y-8940900D01*
X11611301Y-8940900D02*
X11630349Y-8950424D01*
X11706539Y-9150424D02*
X11716063Y-9140900D01*
X11716063Y-9140900D02*
X11735111Y-9112329D01*
X11735111Y-9112329D02*
X11744634Y-9093281D01*
X11744634Y-9093281D02*
X11754158Y-9064710D01*
X11754158Y-9064710D02*
X11763682Y-9017091D01*
X11763682Y-9017091D02*
X11763682Y-8978996D01*
X11763682Y-8978996D02*
X11754158Y-8931377D01*
X11754158Y-8931377D02*
X11744634Y-8902805D01*
X11744634Y-8902805D02*
X11735111Y-8883758D01*
X11735111Y-8883758D02*
X11716063Y-8855186D01*
X11716063Y-8855186D02*
X11706539Y-8845662D01*
X6641000Y-9146750D02*
X6641000Y-9346750D01*
X6541000Y-9246750D02*
X6741000Y-9246750D01*
X6992253Y-9157281D02*
X7001777Y-9147758D01*
X7001777Y-9147758D02*
X7020824Y-9138234D01*
X7020824Y-9138234D02*
X7068443Y-9138234D01*
X7068443Y-9138234D02*
X7087491Y-9147758D01*
X7087491Y-9147758D02*
X7097015Y-9157281D01*
X7097015Y-9157281D02*
X7106539Y-9176329D01*
X7106539Y-9176329D02*
X7106539Y-9195377D01*
X7106539Y-9195377D02*
X7097015Y-9223948D01*
X7097015Y-9223948D02*
X6982729Y-9338234D01*
X6982729Y-9338234D02*
X7106539Y-9338234D01*
X7192253Y-9319186D02*
X7201777Y-9328710D01*
X7201777Y-9328710D02*
X7192253Y-9338234D01*
X7192253Y-9338234D02*
X7182729Y-9328710D01*
X7182729Y-9328710D02*
X7192253Y-9319186D01*
X7192253Y-9319186D02*
X7192253Y-9338234D01*
X7325586Y-9138234D02*
X7344634Y-9138234D01*
X7344634Y-9138234D02*
X7363682Y-9147758D01*
X7363682Y-9147758D02*
X7373205Y-9157281D01*
X7373205Y-9157281D02*
X7382729Y-9176329D01*
X7382729Y-9176329D02*
X7392253Y-9214424D01*
X7392253Y-9214424D02*
X7392253Y-9262043D01*
X7392253Y-9262043D02*
X7382729Y-9300139D01*
X7382729Y-9300139D02*
X7373205Y-9319186D01*
X7373205Y-9319186D02*
X7363682Y-9328710D01*
X7363682Y-9328710D02*
X7344634Y-9338234D01*
X7344634Y-9338234D02*
X7325586Y-9338234D01*
X7325586Y-9338234D02*
X7306539Y-9328710D01*
X7306539Y-9328710D02*
X7297015Y-9319186D01*
X7297015Y-9319186D02*
X7287491Y-9300139D01*
X7287491Y-9300139D02*
X7277967Y-9262043D01*
X7277967Y-9262043D02*
X7277967Y-9214424D01*
X7277967Y-9214424D02*
X7287491Y-9176329D01*
X7287491Y-9176329D02*
X7297015Y-9157281D01*
X7297015Y-9157281D02*
X7306539Y-9147758D01*
X7306539Y-9147758D02*
X7325586Y-9138234D01*
X7516062Y-9138234D02*
X7535110Y-9138234D01*
X7535110Y-9138234D02*
X7554158Y-9147758D01*
X7554158Y-9147758D02*
X7563682Y-9157281D01*
X7563682Y-9157281D02*
X7573205Y-9176329D01*
X7573205Y-9176329D02*
X7582729Y-9214424D01*
X7582729Y-9214424D02*
X7582729Y-9262043D01*
X7582729Y-9262043D02*
X7573205Y-9300139D01*
X7573205Y-9300139D02*
X7563682Y-9319186D01*
X7563682Y-9319186D02*
X7554158Y-9328710D01*
X7554158Y-9328710D02*
X7535110Y-9338234D01*
X7535110Y-9338234D02*
X7516062Y-9338234D01*
X7516062Y-9338234D02*
X7497015Y-9328710D01*
X7497015Y-9328710D02*
X7487491Y-9319186D01*
X7487491Y-9319186D02*
X7477967Y-9300139D01*
X7477967Y-9300139D02*
X7468443Y-9262043D01*
X7468443Y-9262043D02*
X7468443Y-9214424D01*
X7468443Y-9214424D02*
X7477967Y-9176329D01*
X7477967Y-9176329D02*
X7487491Y-9157281D01*
X7487491Y-9157281D02*
X7497015Y-9147758D01*
X7497015Y-9147758D02*
X7516062Y-9138234D01*
X7706539Y-9138234D02*
X7725586Y-9138234D01*
X7725586Y-9138234D02*
X7744634Y-9147758D01*
X7744634Y-9147758D02*
X7754158Y-9157281D01*
X7754158Y-9157281D02*
X7763682Y-9176329D01*
X7763682Y-9176329D02*
X7773205Y-9214424D01*
X7773205Y-9214424D02*
X7773205Y-9262043D01*
X7773205Y-9262043D02*
X7763682Y-9300139D01*
X7763682Y-9300139D02*
X7754158Y-9319186D01*
X7754158Y-9319186D02*
X7744634Y-9328710D01*
X7744634Y-9328710D02*
X7725586Y-9338234D01*
X7725586Y-9338234D02*
X7706539Y-9338234D01*
X7706539Y-9338234D02*
X7687491Y-9328710D01*
X7687491Y-9328710D02*
X7677967Y-9319186D01*
X7677967Y-9319186D02*
X7668443Y-9300139D01*
X7668443Y-9300139D02*
X7658920Y-9262043D01*
X7658920Y-9262043D02*
X7658920Y-9214424D01*
X7658920Y-9214424D02*
X7668443Y-9176329D01*
X7668443Y-9176329D02*
X7677967Y-9157281D01*
X7677967Y-9157281D02*
X7687491Y-9147758D01*
X7687491Y-9147758D02*
X7706539Y-9138234D01*
X7858920Y-9338234D02*
X7858920Y-9204900D01*
X7858920Y-9223948D02*
X7868443Y-9214424D01*
X7868443Y-9214424D02*
X7887491Y-9204900D01*
X7887491Y-9204900D02*
X7916063Y-9204900D01*
X7916063Y-9204900D02*
X7935110Y-9214424D01*
X7935110Y-9214424D02*
X7944634Y-9233472D01*
X7944634Y-9233472D02*
X7944634Y-9338234D01*
X7944634Y-9233472D02*
X7954158Y-9214424D01*
X7954158Y-9214424D02*
X7973205Y-9204900D01*
X7973205Y-9204900D02*
X8001777Y-9204900D01*
X8001777Y-9204900D02*
X8020824Y-9214424D01*
X8020824Y-9214424D02*
X8030348Y-9233472D01*
X8030348Y-9233472D02*
X8030348Y-9338234D01*
X8125586Y-9338234D02*
X8125586Y-9204900D01*
X8125586Y-9223948D02*
X8135110Y-9214424D01*
X8135110Y-9214424D02*
X8154158Y-9204900D01*
X8154158Y-9204900D02*
X8182729Y-9204900D01*
X8182729Y-9204900D02*
X8201777Y-9214424D01*
X8201777Y-9214424D02*
X8211301Y-9233472D01*
X8211301Y-9233472D02*
X8211301Y-9338234D01*
X8211301Y-9233472D02*
X8220824Y-9214424D01*
X8220824Y-9214424D02*
X8239872Y-9204900D01*
X8239872Y-9204900D02*
X8268443Y-9204900D01*
X8268443Y-9204900D02*
X8287491Y-9214424D01*
X8287491Y-9214424D02*
X8297015Y-9233472D01*
X8297015Y-9233472D02*
X8297015Y-9338234D01*
X8687491Y-9128710D02*
X8516063Y-9385853D01*
X8944634Y-9138234D02*
X8963682Y-9138234D01*
X8963682Y-9138234D02*
X8982729Y-9147758D01*
X8982729Y-9147758D02*
X8992253Y-9157281D01*
X8992253Y-9157281D02*
X9001777Y-9176329D01*
X9001777Y-9176329D02*
X9011301Y-9214424D01*
X9011301Y-9214424D02*
X9011301Y-9262043D01*
X9011301Y-9262043D02*
X9001777Y-9300139D01*
X9001777Y-9300139D02*
X8992253Y-9319186D01*
X8992253Y-9319186D02*
X8982729Y-9328710D01*
X8982729Y-9328710D02*
X8963682Y-9338234D01*
X8963682Y-9338234D02*
X8944634Y-9338234D01*
X8944634Y-9338234D02*
X8925587Y-9328710D01*
X8925587Y-9328710D02*
X8916063Y-9319186D01*
X8916063Y-9319186D02*
X8906539Y-9300139D01*
X8906539Y-9300139D02*
X8897015Y-9262043D01*
X8897015Y-9262043D02*
X8897015Y-9214424D01*
X8897015Y-9214424D02*
X8906539Y-9176329D01*
X8906539Y-9176329D02*
X8916063Y-9157281D01*
X8916063Y-9157281D02*
X8925587Y-9147758D01*
X8925587Y-9147758D02*
X8944634Y-9138234D01*
X9097015Y-9319186D02*
X9106539Y-9328710D01*
X9106539Y-9328710D02*
X9097015Y-9338234D01*
X9097015Y-9338234D02*
X9087491Y-9328710D01*
X9087491Y-9328710D02*
X9097015Y-9319186D01*
X9097015Y-9319186D02*
X9097015Y-9338234D01*
X9230348Y-9138234D02*
X9249396Y-9138234D01*
X9249396Y-9138234D02*
X9268444Y-9147758D01*
X9268444Y-9147758D02*
X9277968Y-9157281D01*
X9277968Y-9157281D02*
X9287491Y-9176329D01*
X9287491Y-9176329D02*
X9297015Y-9214424D01*
X9297015Y-9214424D02*
X9297015Y-9262043D01*
X9297015Y-9262043D02*
X9287491Y-9300139D01*
X9287491Y-9300139D02*
X9277968Y-9319186D01*
X9277968Y-9319186D02*
X9268444Y-9328710D01*
X9268444Y-9328710D02*
X9249396Y-9338234D01*
X9249396Y-9338234D02*
X9230348Y-9338234D01*
X9230348Y-9338234D02*
X9211301Y-9328710D01*
X9211301Y-9328710D02*
X9201777Y-9319186D01*
X9201777Y-9319186D02*
X9192253Y-9300139D01*
X9192253Y-9300139D02*
X9182729Y-9262043D01*
X9182729Y-9262043D02*
X9182729Y-9214424D01*
X9182729Y-9214424D02*
X9192253Y-9176329D01*
X9192253Y-9176329D02*
X9201777Y-9157281D01*
X9201777Y-9157281D02*
X9211301Y-9147758D01*
X9211301Y-9147758D02*
X9230348Y-9138234D01*
X9363682Y-9138234D02*
X9497015Y-9138234D01*
X9497015Y-9138234D02*
X9411301Y-9338234D01*
X9601777Y-9223948D02*
X9582729Y-9214424D01*
X9582729Y-9214424D02*
X9573206Y-9204900D01*
X9573206Y-9204900D02*
X9563682Y-9185853D01*
X9563682Y-9185853D02*
X9563682Y-9176329D01*
X9563682Y-9176329D02*
X9573206Y-9157281D01*
X9573206Y-9157281D02*
X9582729Y-9147758D01*
X9582729Y-9147758D02*
X9601777Y-9138234D01*
X9601777Y-9138234D02*
X9639872Y-9138234D01*
X9639872Y-9138234D02*
X9658920Y-9147758D01*
X9658920Y-9147758D02*
X9668444Y-9157281D01*
X9668444Y-9157281D02*
X9677968Y-9176329D01*
X9677968Y-9176329D02*
X9677968Y-9185853D01*
X9677968Y-9185853D02*
X9668444Y-9204900D01*
X9668444Y-9204900D02*
X9658920Y-9214424D01*
X9658920Y-9214424D02*
X9639872Y-9223948D01*
X9639872Y-9223948D02*
X9601777Y-9223948D01*
X9601777Y-9223948D02*
X9582729Y-9233472D01*
X9582729Y-9233472D02*
X9573206Y-9242996D01*
X9573206Y-9242996D02*
X9563682Y-9262043D01*
X9563682Y-9262043D02*
X9563682Y-9300139D01*
X9563682Y-9300139D02*
X9573206Y-9319186D01*
X9573206Y-9319186D02*
X9582729Y-9328710D01*
X9582729Y-9328710D02*
X9601777Y-9338234D01*
X9601777Y-9338234D02*
X9639872Y-9338234D01*
X9639872Y-9338234D02*
X9658920Y-9328710D01*
X9658920Y-9328710D02*
X9668444Y-9319186D01*
X9668444Y-9319186D02*
X9677968Y-9300139D01*
X9677968Y-9300139D02*
X9677968Y-9262043D01*
X9677968Y-9262043D02*
X9668444Y-9242996D01*
X9668444Y-9242996D02*
X9658920Y-9233472D01*
X9658920Y-9233472D02*
X9639872Y-9223948D01*
X9744634Y-9138234D02*
X9877968Y-9138234D01*
X9877968Y-9138234D02*
X9792253Y-9338234D01*
X9944634Y-9138234D02*
X9944634Y-9176329D01*
X10020825Y-9138234D02*
X10020825Y-9176329D01*
X10316063Y-9414424D02*
X10306539Y-9404900D01*
X10306539Y-9404900D02*
X10287491Y-9376329D01*
X10287491Y-9376329D02*
X10277968Y-9357281D01*
X10277968Y-9357281D02*
X10268444Y-9328710D01*
X10268444Y-9328710D02*
X10258920Y-9281091D01*
X10258920Y-9281091D02*
X10258920Y-9242996D01*
X10258920Y-9242996D02*
X10268444Y-9195377D01*
X10268444Y-9195377D02*
X10277968Y-9166805D01*
X10277968Y-9166805D02*
X10287491Y-9147758D01*
X10287491Y-9147758D02*
X10306539Y-9119186D01*
X10306539Y-9119186D02*
X10316063Y-9109662D01*
X10477968Y-9204900D02*
X10477968Y-9338234D01*
X10430349Y-9128710D02*
X10382730Y-9271567D01*
X10382730Y-9271567D02*
X10506539Y-9271567D01*
X10735111Y-9338234D02*
X10735111Y-9138234D01*
X10820825Y-9338234D02*
X10820825Y-9233472D01*
X10820825Y-9233472D02*
X10811301Y-9214424D01*
X10811301Y-9214424D02*
X10792253Y-9204900D01*
X10792253Y-9204900D02*
X10763682Y-9204900D01*
X10763682Y-9204900D02*
X10744634Y-9214424D01*
X10744634Y-9214424D02*
X10735111Y-9223948D01*
X10944634Y-9338234D02*
X10925587Y-9328710D01*
X10925587Y-9328710D02*
X10916063Y-9319186D01*
X10916063Y-9319186D02*
X10906539Y-9300139D01*
X10906539Y-9300139D02*
X10906539Y-9242996D01*
X10906539Y-9242996D02*
X10916063Y-9223948D01*
X10916063Y-9223948D02*
X10925587Y-9214424D01*
X10925587Y-9214424D02*
X10944634Y-9204900D01*
X10944634Y-9204900D02*
X10973206Y-9204900D01*
X10973206Y-9204900D02*
X10992253Y-9214424D01*
X10992253Y-9214424D02*
X11001777Y-9223948D01*
X11001777Y-9223948D02*
X11011301Y-9242996D01*
X11011301Y-9242996D02*
X11011301Y-9300139D01*
X11011301Y-9300139D02*
X11001777Y-9319186D01*
X11001777Y-9319186D02*
X10992253Y-9328710D01*
X10992253Y-9328710D02*
X10973206Y-9338234D01*
X10973206Y-9338234D02*
X10944634Y-9338234D01*
X11125587Y-9338234D02*
X11106539Y-9328710D01*
X11106539Y-9328710D02*
X11097015Y-9309662D01*
X11097015Y-9309662D02*
X11097015Y-9138234D01*
X11277968Y-9328710D02*
X11258920Y-9338234D01*
X11258920Y-9338234D02*
X11220825Y-9338234D01*
X11220825Y-9338234D02*
X11201777Y-9328710D01*
X11201777Y-9328710D02*
X11192253Y-9309662D01*
X11192253Y-9309662D02*
X11192253Y-9233472D01*
X11192253Y-9233472D02*
X11201777Y-9214424D01*
X11201777Y-9214424D02*
X11220825Y-9204900D01*
X11220825Y-9204900D02*
X11258920Y-9204900D01*
X11258920Y-9204900D02*
X11277968Y-9214424D01*
X11277968Y-9214424D02*
X11287491Y-9233472D01*
X11287491Y-9233472D02*
X11287491Y-9252520D01*
X11287491Y-9252520D02*
X11192253Y-9271567D01*
X11363682Y-9328710D02*
X11382730Y-9338234D01*
X11382730Y-9338234D02*
X11420825Y-9338234D01*
X11420825Y-9338234D02*
X11439872Y-9328710D01*
X11439872Y-9328710D02*
X11449396Y-9309662D01*
X11449396Y-9309662D02*
X11449396Y-9300139D01*
X11449396Y-9300139D02*
X11439872Y-9281091D01*
X11439872Y-9281091D02*
X11420825Y-9271567D01*
X11420825Y-9271567D02*
X11392253Y-9271567D01*
X11392253Y-9271567D02*
X11373206Y-9262043D01*
X11373206Y-9262043D02*
X11363682Y-9242996D01*
X11363682Y-9242996D02*
X11363682Y-9233472D01*
X11363682Y-9233472D02*
X11373206Y-9214424D01*
X11373206Y-9214424D02*
X11392253Y-9204900D01*
X11392253Y-9204900D02*
X11420825Y-9204900D01*
X11420825Y-9204900D02*
X11439872Y-9214424D01*
X11516063Y-9414424D02*
X11525587Y-9404900D01*
X11525587Y-9404900D02*
X11544634Y-9376329D01*
X11544634Y-9376329D02*
X11554158Y-9357281D01*
X11554158Y-9357281D02*
X11563682Y-9328710D01*
X11563682Y-9328710D02*
X11573206Y-9281091D01*
X11573206Y-9281091D02*
X11573206Y-9242996D01*
X11573206Y-9242996D02*
X11563682Y-9195377D01*
X11563682Y-9195377D02*
X11554158Y-9166805D01*
X11554158Y-9166805D02*
X11544634Y-9147758D01*
X11544634Y-9147758D02*
X11525587Y-9119186D01*
X11525587Y-9119186D02*
X11516063Y-9109662D01*
M02*
