%TF.GenerationSoftware,KiCad,Pcbnew,8.0.3*%
%TF.CreationDate,2024-07-19T22:27:01-04:00*%
%TF.ProjectId,DCPPowerBoard,44435050-6f77-4657-9242-6f6172642e6b,rev?*%
%TF.SameCoordinates,Original*%
%TF.FileFunction,Copper,L1,Top*%
%TF.FilePolarity,Positive*%
%FSLAX46Y46*%
G04 Gerber Fmt 4.6, Leading zero omitted, Abs format (unit mm)*
G04 Created by KiCad (PCBNEW 8.0.3) date 2024-07-19 22:27:01*
%MOMM*%
%LPD*%
G01*
G04 APERTURE LIST*
%TA.AperFunction,ComponentPad*%
%ADD10C,2.100000*%
%TD*%
%TA.AperFunction,ComponentPad*%
%ADD11R,2.100000X2.100000*%
%TD*%
%TA.AperFunction,ViaPad*%
%ADD12C,4.000000*%
%TD*%
G04 APERTURE END LIST*
D10*
%TO.P,R18,1*%
%TO.N,Net-(J1-Pin_2)*%
X106870000Y-54090000D03*
%TO.P,R18,2*%
%TO.N,Net-(J7-Pin_1)*%
X106870000Y-64250000D03*
%TD*%
%TO.P,R20,1*%
%TO.N,Net-(J1-Pin_4)*%
X98770000Y-54090000D03*
%TO.P,R20,2*%
%TO.N,Net-(J7-Pin_1)*%
X98770000Y-64250000D03*
%TD*%
D11*
%TO.P,J7,1,Pin_1*%
%TO.N,Net-(J7-Pin_1)*%
X104962339Y-71800000D03*
D10*
%TO.P,J7,2,Pin_2*%
%TO.N,Net-(J2-Pin_1)*%
X104962339Y-69260000D03*
%TD*%
%TO.P,J2,1,Pin_1*%
%TO.N,Net-(J2-Pin_1)*%
X88212339Y-69250000D03*
%TO.P,J2,2,Pin_2*%
X85672339Y-69250000D03*
%TO.P,J2,3,Pin_3*%
X83132339Y-69250000D03*
%TO.P,J2,4,Pin_4*%
X80592339Y-69250000D03*
%TO.P,J2,5,Pin_5*%
X78052339Y-69250000D03*
%TD*%
%TO.P,J1,1,Pin_1*%
%TO.N,Net-(J1-Pin_1)*%
X104120000Y-45500000D03*
%TO.P,J1,2,Pin_2*%
%TO.N,Net-(J1-Pin_2)*%
X101580000Y-45500000D03*
%TO.P,J1,3,Pin_3*%
%TO.N,Net-(J1-Pin_3)*%
X99040000Y-45500000D03*
%TO.P,J1,4,Pin_4*%
%TO.N,Net-(J1-Pin_4)*%
X96500000Y-45500000D03*
%TO.P,J1,5,Pin_5*%
%TO.N,Net-(J1-Pin_5)*%
X93960000Y-45500000D03*
%TO.P,J1,6,Pin_6*%
%TO.N,Net-(J1-Pin_6)*%
X91420000Y-45500000D03*
%TO.P,J1,7,Pin_7*%
%TO.N,Net-(J1-Pin_7)*%
X88880000Y-45500000D03*
%TO.P,J1,8,Pin_8*%
%TO.N,/<NO NET>*%
X86340000Y-45500000D03*
%TO.P,J1,9,Pin_9*%
%TO.N,Net-(J1-Pin_9)*%
X83800000Y-45500000D03*
%TO.P,J1,10,Pin_10*%
%TO.N,Net-(J1-Pin_10)*%
X81260000Y-45500000D03*
%TD*%
%TO.P,R21,1*%
%TO.N,Net-(J1-Pin_5)*%
X94720000Y-54090000D03*
%TO.P,R21,2*%
%TO.N,Net-(J7-Pin_1)*%
X94720000Y-64250000D03*
%TD*%
%TO.P,R22,1*%
%TO.N,Net-(J1-Pin_6)*%
X90670000Y-54090000D03*
%TO.P,R22,2*%
%TO.N,Net-(J7-Pin_1)*%
X90670000Y-64250000D03*
%TD*%
%TO.P,R26,1*%
%TO.N,Net-(J1-Pin_10)*%
X74470000Y-54090000D03*
%TO.P,R26,2*%
%TO.N,Net-(J7-Pin_1)*%
X74470000Y-64250000D03*
%TD*%
%TO.P,R17,1*%
%TO.N,Net-(J1-Pin_1)*%
X110920000Y-54090000D03*
%TO.P,R17,2*%
%TO.N,Net-(J7-Pin_1)*%
X110920000Y-64250000D03*
%TD*%
%TO.P,R24,1*%
%TO.N,/<NO NET>*%
X82570000Y-54090000D03*
%TO.P,R24,2*%
%TO.N,Net-(J7-Pin_1)*%
X82570000Y-64250000D03*
%TD*%
%TO.P,R19,1*%
%TO.N,Net-(J1-Pin_3)*%
X102820000Y-54090000D03*
%TO.P,R19,2*%
%TO.N,Net-(J7-Pin_1)*%
X102820000Y-64250000D03*
%TD*%
%TO.P,R23,1*%
%TO.N,Net-(J1-Pin_7)*%
X86620000Y-54090000D03*
%TO.P,R23,2*%
%TO.N,Net-(J7-Pin_1)*%
X86620000Y-64250000D03*
%TD*%
%TO.P,R25,1*%
%TO.N,Net-(J1-Pin_9)*%
X78520000Y-54090000D03*
%TO.P,R25,2*%
%TO.N,Net-(J7-Pin_1)*%
X78520000Y-64250000D03*
%TD*%
D12*
%TO.N,*%
X70586860Y-77614129D03*
X70597871Y-45807355D03*
X115085742Y-45829871D03*
X115092520Y-77621118D03*
%TD*%
M02*
