%TF.GenerationSoftware,KiCad,Pcbnew,8.0.3*%
%TF.CreationDate,2024-07-19T22:27:08-04:00*%
%TF.ProjectId,DCPPowerBoard,44435050-6f77-4657-9242-6f6172642e6b,rev?*%
%TF.SameCoordinates,Original*%
%TF.FileFunction,Plated,1,2,PTH,Drill*%
%TF.FilePolarity,Positive*%
%FSLAX46Y46*%
G04 Gerber Fmt 4.6, Leading zero omitted, Abs format (unit mm)*
G04 Created by KiCad (PCBNEW 8.0.3) date 2024-07-19 22:27:08*
%MOMM*%
%LPD*%
G01*
G04 APERTURE LIST*
%TA.AperFunction,ComponentDrill*%
%ADD10C,0.800000*%
%TD*%
%TA.AperFunction,ComponentDrill*%
%ADD11C,1.000000*%
%TD*%
%TA.AperFunction,ViaDrill*%
%ADD12C,2.000000*%
%TD*%
G04 APERTURE END LIST*
D10*
%TO.C,R26*%
X74470000Y-54090000D03*
X74470000Y-64250000D03*
%TO.C,R25*%
X78520000Y-54090000D03*
X78520000Y-64250000D03*
%TO.C,R24*%
X82570000Y-54090000D03*
X82570000Y-64250000D03*
%TO.C,R23*%
X86620000Y-54090000D03*
X86620000Y-64250000D03*
%TO.C,R22*%
X90670000Y-54090000D03*
X90670000Y-64250000D03*
%TO.C,R21*%
X94720000Y-54090000D03*
X94720000Y-64250000D03*
%TO.C,R20*%
X98770000Y-54090000D03*
X98770000Y-64250000D03*
%TO.C,R19*%
X102820000Y-54090000D03*
X102820000Y-64250000D03*
%TO.C,R18*%
X106870000Y-54090000D03*
X106870000Y-64250000D03*
%TO.C,R17*%
X110920000Y-54090000D03*
X110920000Y-64250000D03*
D11*
%TO.C,J2*%
X78052339Y-69250000D03*
X80592339Y-69250000D03*
%TO.C,J1*%
X81260000Y-45500000D03*
%TO.C,J2*%
X83132339Y-69250000D03*
%TO.C,J1*%
X83800000Y-45500000D03*
%TO.C,J2*%
X85672339Y-69250000D03*
%TO.C,J1*%
X86340000Y-45500000D03*
%TO.C,J2*%
X88212339Y-69250000D03*
%TO.C,J1*%
X88880000Y-45500000D03*
X91420000Y-45500000D03*
X93960000Y-45500000D03*
X96500000Y-45500000D03*
X99040000Y-45500000D03*
X101580000Y-45500000D03*
X104120000Y-45500000D03*
%TO.C,J7*%
X104962339Y-69260000D03*
X104962339Y-71800000D03*
%TD*%
D12*
X70586860Y-77614129D03*
X70597871Y-45807355D03*
X115085742Y-45829871D03*
X115092520Y-77621118D03*
M02*
