%TF.GenerationSoftware,KiCad,Pcbnew,8.0.3*%
%TF.CreationDate,2024-07-19T22:03:55-04:00*%
%TF.ProjectId,CCPPowerBoard,43435050-6f77-4657-9242-6f6172642e6b,rev?*%
%TF.SameCoordinates,Original*%
%TF.FileFunction,Soldermask,Top*%
%TF.FilePolarity,Negative*%
%FSLAX46Y46*%
G04 Gerber Fmt 4.6, Leading zero omitted, Abs format (unit mm)*
G04 Created by KiCad (PCBNEW 8.0.3) date 2024-07-19 22:03:55*
%MOMM*%
%LPD*%
G01*
G04 APERTURE LIST*
%ADD10C,2.100000*%
%ADD11R,2.100000X2.100000*%
%ADD12O,2.100000X2.100000*%
G04 APERTURE END LIST*
D10*
%TO.C,R1*%
X149100000Y-69500000D03*
X149100000Y-79660000D03*
%TD*%
%TO.C,R15*%
X106200000Y-69500000D03*
X106200000Y-79660000D03*
%TD*%
%TO.C,R10*%
X121450000Y-69500000D03*
X121450000Y-79660000D03*
%TD*%
%TO.C,R8*%
X127550000Y-69500000D03*
X127550000Y-79660000D03*
%TD*%
%TO.C,R22*%
X84800000Y-69500000D03*
X84800000Y-79660000D03*
%TD*%
%TO.C,R18*%
X97050000Y-69500000D03*
X97050000Y-79660000D03*
%TD*%
%TO.C,R2*%
X146100000Y-69500000D03*
X146100000Y-79660000D03*
%TD*%
%TO.C,R13*%
X112300000Y-69500000D03*
X112300000Y-79660000D03*
%TD*%
%TO.C,R29*%
X92535000Y-86000000D03*
X102695000Y-86000000D03*
%TD*%
%TO.C,R12*%
X115350000Y-69500000D03*
X115350000Y-79660000D03*
%TD*%
%TO.C,J2*%
X129650000Y-98000000D03*
X132190000Y-98000000D03*
X134730000Y-98000000D03*
X137270000Y-98000000D03*
X139810000Y-98000000D03*
X142350000Y-98000000D03*
%TD*%
%TO.C,R28*%
X73920000Y-102250000D03*
X84080000Y-102250000D03*
%TD*%
%TO.C,R27*%
X111600000Y-97250000D03*
X101440000Y-97250000D03*
%TD*%
D11*
%TO.C,J6*%
X149825000Y-84250000D03*
D10*
X152365000Y-84250000D03*
%TD*%
%TO.C,R26*%
X72200000Y-69500000D03*
D12*
X72200000Y-79660000D03*
%TD*%
D10*
%TO.C,R4*%
X140000000Y-69500000D03*
X140000000Y-79660000D03*
%TD*%
D11*
%TO.C,J7*%
X150500000Y-56250000D03*
D10*
X153040000Y-56250000D03*
%TD*%
%TO.C,R23*%
X81600000Y-69500000D03*
X81600000Y-79660000D03*
%TD*%
%TO.C,Q2*%
X89270000Y-96750000D03*
X91810000Y-96750000D03*
X94350000Y-96750000D03*
%TD*%
%TO.C,Q1*%
X81725000Y-84400000D03*
X81725000Y-87000000D03*
X81725000Y-89600000D03*
%TD*%
D11*
%TO.C,J1*%
X83110000Y-60950000D03*
D10*
X85650000Y-60950000D03*
X88190000Y-60950000D03*
X90730000Y-60950000D03*
X93270000Y-60950000D03*
X95810000Y-60950000D03*
D12*
X98350000Y-60950000D03*
X100890000Y-60950000D03*
X103430000Y-60950000D03*
D10*
X105970000Y-60950000D03*
X108510000Y-60950000D03*
D12*
X111050000Y-60950000D03*
D10*
X113590000Y-60950000D03*
D12*
X116130000Y-60950000D03*
D10*
X118670000Y-60950000D03*
X121210000Y-60950000D03*
X123750000Y-60950000D03*
X126290000Y-60950000D03*
X128830000Y-60950000D03*
X131370000Y-60950000D03*
D12*
X133910000Y-60950000D03*
D10*
X136450000Y-60950000D03*
X138990000Y-60950000D03*
X141530000Y-60950000D03*
D12*
X144070000Y-60950000D03*
D10*
X146610000Y-60950000D03*
%TD*%
%TO.C,R25*%
X75400000Y-69500000D03*
D12*
X75400000Y-79660000D03*
%TD*%
D10*
%TO.C,R20*%
X91000000Y-69500000D03*
X91000000Y-79660000D03*
%TD*%
%TO.C,R21*%
X87950000Y-69500000D03*
X87950000Y-79660000D03*
%TD*%
%TO.C,R17*%
X100100000Y-69500000D03*
X100100000Y-79660000D03*
%TD*%
%TO.C,R24*%
X78500000Y-69500000D03*
X78500000Y-79660000D03*
%TD*%
%TO.C,R9*%
X124500000Y-69500000D03*
X124500000Y-79660000D03*
%TD*%
%TO.C,R5*%
X136850000Y-69500000D03*
X136850000Y-79660000D03*
%TD*%
D11*
%TO.C,J5*%
X113575000Y-86300000D03*
D10*
X116115000Y-86300000D03*
%TD*%
%TO.C,R19*%
X94050000Y-69500000D03*
X94050000Y-79660000D03*
%TD*%
%TO.C,R6*%
X133650000Y-69500000D03*
X133650000Y-79660000D03*
%TD*%
%TO.C,R3*%
X143050000Y-69500000D03*
X143050000Y-79660000D03*
%TD*%
%TO.C,R14*%
X109250000Y-69500000D03*
X109250000Y-79660000D03*
%TD*%
%TO.C,R16*%
X103150000Y-69500000D03*
X103150000Y-79660000D03*
%TD*%
%TO.C,R11*%
X118400000Y-69500000D03*
X118400000Y-79660000D03*
%TD*%
%TO.C,R7*%
X130600000Y-69500000D03*
X130600000Y-79660000D03*
%TD*%
M02*
