%TF.GenerationSoftware,KiCad,Pcbnew,8.0.3*%
%TF.CreationDate,2024-07-19T22:03:54-04:00*%
%TF.ProjectId,CCPPowerBoard,43435050-6f77-4657-9242-6f6172642e6b,rev?*%
%TF.SameCoordinates,Original*%
%TF.FileFunction,Copper,L2,Bot*%
%TF.FilePolarity,Positive*%
%FSLAX46Y46*%
G04 Gerber Fmt 4.6, Leading zero omitted, Abs format (unit mm)*
G04 Created by KiCad (PCBNEW 8.0.3) date 2024-07-19 22:03:54*
%MOMM*%
%LPD*%
G01*
G04 APERTURE LIST*
%TA.AperFunction,ComponentPad*%
%ADD10C,2.100000*%
%TD*%
%TA.AperFunction,ComponentPad*%
%ADD11R,2.100000X2.100000*%
%TD*%
%TA.AperFunction,ComponentPad*%
%ADD12O,2.100000X2.100000*%
%TD*%
%TA.AperFunction,ViaPad*%
%ADD13C,4.000000*%
%TD*%
%TA.AperFunction,ViaPad*%
%ADD14C,3.000000*%
%TD*%
%TA.AperFunction,Conductor*%
%ADD15C,0.900000*%
%TD*%
%TA.AperFunction,Conductor*%
%ADD16C,0.700000*%
%TD*%
%TA.AperFunction,Conductor*%
%ADD17C,0.500000*%
%TD*%
G04 APERTURE END LIST*
D10*
%TO.P,R1,1*%
%TO.N,Net-(J1-Pin_26)*%
X149100000Y-69500000D03*
%TO.P,R1,2*%
%TO.N,Net-(J7-Pin_1)*%
X149100000Y-79660000D03*
%TD*%
%TO.P,R15,1*%
%TO.N,Net-(J1-Pin_12)*%
X106200000Y-69500000D03*
%TO.P,R15,2*%
%TO.N,Net-(J7-Pin_1)*%
X106200000Y-79660000D03*
%TD*%
%TO.P,R10,1*%
%TO.N,Net-(J1-Pin_17)*%
X121450000Y-69500000D03*
%TO.P,R10,2*%
%TO.N,Net-(J7-Pin_1)*%
X121450000Y-79660000D03*
%TD*%
%TO.P,R8,1*%
%TO.N,Net-(J1-Pin_19)*%
X127550000Y-69500000D03*
%TO.P,R8,2*%
%TO.N,Net-(J7-Pin_1)*%
X127550000Y-79660000D03*
%TD*%
%TO.P,R22,1*%
%TO.N,Net-(J1-Pin_5)*%
X84800000Y-69500000D03*
%TO.P,R22,2*%
%TO.N,Net-(J7-Pin_1)*%
X84800000Y-79660000D03*
%TD*%
%TO.P,R18,1*%
%TO.N,Net-(J1-Pin_9)*%
X97050000Y-69500000D03*
%TO.P,R18,2*%
%TO.N,Net-(J7-Pin_1)*%
X97050000Y-79660000D03*
%TD*%
%TO.P,R2,1*%
%TO.N,Net-(J1-Pin_25)*%
X146100000Y-69500000D03*
%TO.P,R2,2*%
%TO.N,Net-(J7-Pin_1)*%
X146100000Y-79660000D03*
%TD*%
%TO.P,R13,1*%
%TO.N,Net-(J1-Pin_14)*%
X112300000Y-69500000D03*
%TO.P,R13,2*%
%TO.N,Net-(J7-Pin_1)*%
X112300000Y-79660000D03*
%TD*%
%TO.P,R29,1*%
%TO.N,Net-(Q2-G)*%
X92535000Y-86000000D03*
%TO.P,R29,2*%
%TO.N,Net-(J5-Pin_1)*%
X102695000Y-86000000D03*
%TD*%
%TO.P,R12,1*%
%TO.N,Net-(J1-Pin_15)*%
X115350000Y-69500000D03*
%TO.P,R12,2*%
%TO.N,Net-(J7-Pin_1)*%
X115350000Y-79660000D03*
%TD*%
%TO.P,J2,1,Pin_1*%
%TO.N,Net-(J2-Pin_1)*%
X129650000Y-98000000D03*
%TO.P,J2,2,Pin_2*%
X132190000Y-98000000D03*
%TO.P,J2,3,Pin_3*%
X134730000Y-98000000D03*
%TO.P,J2,4,Pin_4*%
X137270000Y-98000000D03*
%TO.P,J2,5,Pin_5*%
X139810000Y-98000000D03*
%TO.P,J2,6,Pin_6*%
X142350000Y-98000000D03*
%TD*%
%TO.P,R28,1*%
%TO.N,Net-(Q1-B)*%
X73920000Y-102250000D03*
%TO.P,R28,2*%
%TO.N,Net-(Q2-D)*%
X84080000Y-102250000D03*
%TD*%
%TO.P,R27,1*%
%TO.N,Net-(J2-Pin_1)*%
X111600000Y-97250000D03*
%TO.P,R27,2*%
%TO.N,Net-(Q2-G)*%
X101440000Y-97250000D03*
%TD*%
D11*
%TO.P,J6,1,Pin_1*%
%TO.N,Net-(J6-Pin_1)*%
X149825000Y-84250000D03*
D10*
%TO.P,J6,2,Pin_2*%
%TO.N,Net-(J2-Pin_1)*%
X152365000Y-84250000D03*
%TD*%
%TO.P,R26,1*%
%TO.N,Net-(J1-Pin_1)*%
X72200000Y-69500000D03*
D12*
%TO.P,R26,2*%
%TO.N,Net-(J7-Pin_1)*%
X72200000Y-79660000D03*
%TD*%
D10*
%TO.P,R4,1*%
%TO.N,Net-(J1-Pin_23)*%
X140000000Y-69500000D03*
%TO.P,R4,2*%
%TO.N,Net-(J7-Pin_1)*%
X140000000Y-79660000D03*
%TD*%
D11*
%TO.P,J7,1,Pin_1*%
%TO.N,Net-(J7-Pin_1)*%
X150500000Y-56250000D03*
D10*
%TO.P,J7,2,Pin_2*%
%TO.N,Net-(J2-Pin_1)*%
X153040000Y-56250000D03*
%TD*%
%TO.P,R23,1*%
%TO.N,Net-(J1-Pin_4)*%
X81600000Y-69500000D03*
%TO.P,R23,2*%
%TO.N,Net-(J7-Pin_1)*%
X81600000Y-79660000D03*
%TD*%
%TO.P,Q2,1,G*%
%TO.N,Net-(Q2-G)*%
X89270000Y-96750000D03*
%TO.P,Q2,2,D*%
%TO.N,Net-(Q2-D)*%
X91810000Y-96750000D03*
%TO.P,Q2,3,S*%
%TO.N,Net-(J2-Pin_1)*%
X94350000Y-96750000D03*
%TD*%
%TO.P,Q1,1,C*%
%TO.N,Net-(J7-Pin_1)*%
X81725000Y-84400000D03*
%TO.P,Q1,2,B*%
%TO.N,Net-(Q1-B)*%
X81725000Y-87000000D03*
%TO.P,Q1,3,E*%
%TO.N,Net-(J6-Pin_1)*%
X81725000Y-89600000D03*
%TD*%
D11*
%TO.P,J1,1,Pin_1*%
%TO.N,Net-(J1-Pin_1)*%
X83110000Y-60950000D03*
D10*
%TO.P,J1,2,Pin_2*%
%TO.N,Net-(J1-Pin_2)*%
X85650000Y-60950000D03*
%TO.P,J1,3,Pin_3*%
%TO.N,Net-(J1-Pin_3)*%
X88190000Y-60950000D03*
%TO.P,J1,4,Pin_4*%
%TO.N,Net-(J1-Pin_4)*%
X90730000Y-60950000D03*
%TO.P,J1,5,Pin_5*%
%TO.N,Net-(J1-Pin_5)*%
X93270000Y-60950000D03*
%TO.P,J1,6,Pin_6*%
%TO.N,Net-(J1-Pin_6)*%
X95810000Y-60950000D03*
D12*
%TO.P,J1,7,Pin_7*%
%TO.N,Net-(J1-Pin_7)*%
X98350000Y-60950000D03*
%TO.P,J1,8,Pin_8*%
%TO.N,Net-(J1-Pin_8)*%
X100890000Y-60950000D03*
%TO.P,J1,9,Pin_9*%
%TO.N,Net-(J1-Pin_9)*%
X103430000Y-60950000D03*
D10*
%TO.P,J1,10,Pin_10*%
%TO.N,Net-(J1-Pin_10)*%
X105970000Y-60950000D03*
%TO.P,J1,11,Pin_11*%
%TO.N,Net-(J1-Pin_11)*%
X108510000Y-60950000D03*
D12*
%TO.P,J1,12,Pin_12*%
%TO.N,Net-(J1-Pin_12)*%
X111050000Y-60950000D03*
D10*
%TO.P,J1,13,Pin_13*%
%TO.N,Net-(J1-Pin_13)*%
X113590000Y-60950000D03*
D12*
%TO.P,J1,14,Pin_14*%
%TO.N,Net-(J1-Pin_14)*%
X116130000Y-60950000D03*
D10*
%TO.P,J1,15,Pin_15*%
%TO.N,Net-(J1-Pin_15)*%
X118670000Y-60950000D03*
%TO.P,J1,16,Pin_16*%
%TO.N,Net-(J1-Pin_16)*%
X121210000Y-60950000D03*
%TO.P,J1,17,Pin_17*%
%TO.N,Net-(J1-Pin_17)*%
X123750000Y-60950000D03*
%TO.P,J1,18,Pin_18*%
%TO.N,Net-(J1-Pin_18)*%
X126290000Y-60950000D03*
%TO.P,J1,19,Pin_19*%
%TO.N,Net-(J1-Pin_19)*%
X128830000Y-60950000D03*
%TO.P,J1,20,Pin_20*%
%TO.N,Net-(J1-Pin_20)*%
X131370000Y-60950000D03*
D12*
%TO.P,J1,21,Pin_21*%
%TO.N,Net-(J1-Pin_21)*%
X133910000Y-60950000D03*
D10*
%TO.P,J1,22,Pin_22*%
%TO.N,Net-(J1-Pin_22)*%
X136450000Y-60950000D03*
%TO.P,J1,23,Pin_23*%
%TO.N,Net-(J1-Pin_23)*%
X138990000Y-60950000D03*
%TO.P,J1,24,Pin_24*%
%TO.N,Net-(J1-Pin_24)*%
X141530000Y-60950000D03*
D12*
%TO.P,J1,25,Pin_25*%
%TO.N,Net-(J1-Pin_25)*%
X144070000Y-60950000D03*
D10*
%TO.P,J1,26,Pin_26*%
%TO.N,Net-(J1-Pin_26)*%
X146610000Y-60950000D03*
%TD*%
%TO.P,R25,1*%
%TO.N,Net-(J1-Pin_2)*%
X75400000Y-69500000D03*
D12*
%TO.P,R25,2*%
%TO.N,Net-(J7-Pin_1)*%
X75400000Y-79660000D03*
%TD*%
D10*
%TO.P,R20,1*%
%TO.N,Net-(J1-Pin_7)*%
X91000000Y-69500000D03*
%TO.P,R20,2*%
%TO.N,Net-(J7-Pin_1)*%
X91000000Y-79660000D03*
%TD*%
%TO.P,R21,1*%
%TO.N,Net-(J1-Pin_6)*%
X87950000Y-69500000D03*
%TO.P,R21,2*%
%TO.N,Net-(J7-Pin_1)*%
X87950000Y-79660000D03*
%TD*%
%TO.P,R17,1*%
%TO.N,Net-(J1-Pin_10)*%
X100100000Y-69500000D03*
%TO.P,R17,2*%
%TO.N,Net-(J7-Pin_1)*%
X100100000Y-79660000D03*
%TD*%
%TO.P,R24,1*%
%TO.N,Net-(J1-Pin_3)*%
X78500000Y-69500000D03*
%TO.P,R24,2*%
%TO.N,Net-(J7-Pin_1)*%
X78500000Y-79660000D03*
%TD*%
%TO.P,R9,1*%
%TO.N,Net-(J1-Pin_18)*%
X124500000Y-69500000D03*
%TO.P,R9,2*%
%TO.N,Net-(J7-Pin_1)*%
X124500000Y-79660000D03*
%TD*%
%TO.P,R5,1*%
%TO.N,Net-(J1-Pin_22)*%
X136850000Y-69500000D03*
%TO.P,R5,2*%
%TO.N,Net-(J7-Pin_1)*%
X136850000Y-79660000D03*
%TD*%
D11*
%TO.P,J5,1,Pin_1*%
%TO.N,Net-(J5-Pin_1)*%
X113575000Y-86300000D03*
D10*
%TO.P,J5,2,Pin_2*%
%TO.N,Net-(J2-Pin_1)*%
X116115000Y-86300000D03*
%TD*%
%TO.P,R19,1*%
%TO.N,Net-(J1-Pin_8)*%
X94050000Y-69500000D03*
%TO.P,R19,2*%
%TO.N,Net-(J7-Pin_1)*%
X94050000Y-79660000D03*
%TD*%
%TO.P,R6,1*%
%TO.N,Net-(J1-Pin_21)*%
X133650000Y-69500000D03*
%TO.P,R6,2*%
%TO.N,Net-(J7-Pin_1)*%
X133650000Y-79660000D03*
%TD*%
%TO.P,R3,1*%
%TO.N,Net-(J1-Pin_24)*%
X143050000Y-69500000D03*
%TO.P,R3,2*%
%TO.N,Net-(J7-Pin_1)*%
X143050000Y-79660000D03*
%TD*%
%TO.P,R14,1*%
%TO.N,Net-(J1-Pin_13)*%
X109250000Y-69500000D03*
%TO.P,R14,2*%
%TO.N,Net-(J7-Pin_1)*%
X109250000Y-79660000D03*
%TD*%
%TO.P,R16,1*%
%TO.N,Net-(J1-Pin_11)*%
X103150000Y-69500000D03*
%TO.P,R16,2*%
%TO.N,Net-(J7-Pin_1)*%
X103150000Y-79660000D03*
%TD*%
%TO.P,R11,1*%
%TO.N,Net-(J1-Pin_16)*%
X118400000Y-69500000D03*
%TO.P,R11,2*%
%TO.N,Net-(J7-Pin_1)*%
X118400000Y-79660000D03*
%TD*%
%TO.P,R7,1*%
%TO.N,Net-(J1-Pin_20)*%
X130600000Y-69500000D03*
%TO.P,R7,2*%
%TO.N,Net-(J7-Pin_1)*%
X130600000Y-79660000D03*
%TD*%
D13*
%TO.N,*%
X73500000Y-61500000D03*
X152250000Y-61500000D03*
D14*
X73500000Y-97250000D03*
D13*
%TO.N,Net-(Q1-B)*%
X152250000Y-97250000D03*
%TD*%
D15*
%TO.N,Net-(J2-Pin_1)*%
X114500000Y-100500000D02*
X114500000Y-100000000D01*
X155400000Y-81365000D02*
X152515000Y-84250000D01*
X94500000Y-100000000D02*
X95000000Y-100500000D01*
X95000000Y-100500000D02*
X114500000Y-100500000D01*
X129800000Y-98000000D02*
X142500000Y-98000000D01*
X130250000Y-86300000D02*
X132500000Y-86300000D01*
X139960000Y-98000000D02*
X139960000Y-86510000D01*
X116335000Y-90815000D02*
X116400000Y-90750000D01*
X137250000Y-86300000D02*
X139750000Y-86300000D01*
X148250000Y-87750000D02*
X152280000Y-87750000D01*
X153190000Y-56250000D02*
X155400000Y-58460000D01*
X111750000Y-97250000D02*
X111750000Y-90815000D01*
X142500000Y-86300000D02*
X146800000Y-86300000D01*
X142500000Y-98000000D02*
X142500000Y-86300000D01*
X116265000Y-86300000D02*
X130250000Y-86300000D01*
X114500000Y-100000000D02*
X111750000Y-97250000D01*
X129800000Y-86750000D02*
X130250000Y-86300000D01*
X134880000Y-98000000D02*
X134880000Y-86430000D01*
X132340000Y-86460000D02*
X132500000Y-86300000D01*
X139960000Y-86510000D02*
X139750000Y-86300000D01*
X146800000Y-86300000D02*
X148250000Y-87750000D01*
X129800000Y-98000000D02*
X129800000Y-86750000D01*
X139750000Y-86300000D02*
X142500000Y-86300000D01*
X152515000Y-87515000D02*
X152515000Y-84250000D01*
X132500000Y-86300000D02*
X134750000Y-86300000D01*
X111750000Y-90815000D02*
X116335000Y-90815000D01*
X137420000Y-98000000D02*
X137420000Y-86470000D01*
X116400000Y-90750000D02*
X116265000Y-90615000D01*
X134750000Y-86300000D02*
X137250000Y-86300000D01*
X134880000Y-86430000D02*
X134750000Y-86300000D01*
X94500000Y-96750000D02*
X94500000Y-100000000D01*
X116265000Y-90615000D02*
X116265000Y-86300000D01*
X137420000Y-86470000D02*
X137250000Y-86300000D01*
X132340000Y-98000000D02*
X132340000Y-86460000D01*
X152280000Y-87750000D02*
X152515000Y-87515000D01*
X155400000Y-58460000D02*
X155400000Y-81365000D01*
D16*
%TO.N,Net-(J1-Pin_9)*%
X103580000Y-63120000D02*
X103580000Y-60950000D01*
X97200000Y-69500000D02*
X103580000Y-63120000D01*
%TO.N,Net-(J1-Pin_15)*%
X118820000Y-62330000D02*
X118820000Y-60950000D01*
X115500000Y-69500000D02*
X115500000Y-65650000D01*
X115500000Y-65650000D02*
X118820000Y-62330000D01*
%TO.N,Net-(J1-Pin_21)*%
X134400000Y-63000000D02*
X134060000Y-62660000D01*
X133800000Y-69500000D02*
X133800000Y-63600000D01*
X133800000Y-63600000D02*
X134400000Y-63000000D01*
X134060000Y-62660000D02*
X134060000Y-60950000D01*
%TO.N,Net-(J1-Pin_14)*%
X112450000Y-69500000D02*
X112450000Y-66200000D01*
X112450000Y-66200000D02*
X116280000Y-62370000D01*
X116280000Y-62370000D02*
X116280000Y-60950000D01*
%TO.N,Net-(J1-Pin_19)*%
X128980000Y-62920000D02*
X128980000Y-60950000D01*
X127700000Y-69500000D02*
X127700000Y-64200000D01*
X127700000Y-64200000D02*
X128980000Y-62920000D01*
%TO.N,Net-(J1-Pin_11)*%
X103300000Y-68350000D02*
X108660000Y-62990000D01*
X108660000Y-62990000D02*
X108660000Y-60950000D01*
X103300000Y-69500000D02*
X103300000Y-68350000D01*
%TO.N,Net-(J1-Pin_26)*%
X146760000Y-62890000D02*
X146760000Y-60950000D01*
X147400000Y-63750000D02*
X146650000Y-63000000D01*
X147900000Y-68150000D02*
X147900000Y-66000000D01*
X147400000Y-65500000D02*
X147400000Y-63750000D01*
X146650000Y-63000000D02*
X146760000Y-62890000D01*
X149250000Y-69500000D02*
X147900000Y-68150000D01*
X147900000Y-66000000D02*
X147400000Y-65500000D01*
%TO.N,Net-(J1-Pin_24)*%
X143200000Y-65050000D02*
X141400000Y-63250000D01*
X143200000Y-69500000D02*
X143200000Y-65050000D01*
X141680000Y-62970000D02*
X141680000Y-60950000D01*
X141400000Y-63250000D02*
X141680000Y-62970000D01*
%TO.N,Net-(J1-Pin_23)*%
X140150000Y-64750000D02*
X139400000Y-64000000D01*
X139140000Y-63240000D02*
X139140000Y-60950000D01*
X140150000Y-69500000D02*
X140150000Y-64750000D01*
X139400000Y-64000000D02*
X139400000Y-63500000D01*
X139400000Y-63500000D02*
X139140000Y-63240000D01*
%TO.N,Net-(J1-Pin_7)*%
X98500000Y-62150000D02*
X98500000Y-60950000D01*
X91150000Y-69500000D02*
X98500000Y-62150000D01*
%TO.N,Net-(J1-Pin_5)*%
X84950000Y-67450000D02*
X85400000Y-67000000D01*
X88572081Y-67000000D02*
X93420000Y-62152081D01*
X85400000Y-67000000D02*
X88572081Y-67000000D01*
X84950000Y-69500000D02*
X84950000Y-67450000D01*
X93420000Y-62152081D02*
X93420000Y-60950000D01*
%TO.N,Net-(J1-Pin_20)*%
X130750000Y-69500000D02*
X130750000Y-63400000D01*
X131520000Y-62370000D02*
X131520000Y-60950000D01*
X130750000Y-63400000D02*
X131650000Y-62500000D01*
X131650000Y-62500000D02*
X131520000Y-62370000D01*
%TO.N,Net-(J1-Pin_8)*%
X100900000Y-62800000D02*
X100900000Y-61090000D01*
X100900000Y-61090000D02*
X101040000Y-60950000D01*
X94200000Y-69500000D02*
X100900000Y-62800000D01*
%TO.N,Net-(J1-Pin_17)*%
X123650000Y-63000000D02*
X123900000Y-62750000D01*
X121600000Y-64300000D02*
X122900000Y-63000000D01*
X122900000Y-63000000D02*
X123650000Y-63000000D01*
X123900000Y-62750000D02*
X123900000Y-60950000D01*
X121600000Y-69500000D02*
X121600000Y-64300000D01*
%TO.N,Net-(J1-Pin_25)*%
X144220000Y-63570000D02*
X144220000Y-60950000D01*
X146250000Y-65600000D02*
X144220000Y-63570000D01*
X146250000Y-69500000D02*
X146250000Y-65600000D01*
%TO.N,Net-(J1-Pin_6)*%
X88100000Y-69500000D02*
X94600000Y-63000000D01*
X95900000Y-63000000D02*
X95960000Y-62940000D01*
X95960000Y-62940000D02*
X95960000Y-60950000D01*
X94600000Y-63000000D02*
X95900000Y-63000000D01*
%TO.N,Net-(J1-Pin_1)*%
X72350000Y-66300000D02*
X74650000Y-64000000D01*
X74650000Y-64000000D02*
X76150000Y-64000000D01*
X80150000Y-60750000D02*
X80350000Y-60950000D01*
X72350000Y-69500000D02*
X72350000Y-66300000D01*
X76150000Y-64000000D02*
X79400000Y-60750000D01*
X80350000Y-60950000D02*
X83260000Y-60950000D01*
X79400000Y-60750000D02*
X80150000Y-60750000D01*
%TO.N,Net-(J1-Pin_3)*%
X78650000Y-66000000D02*
X80150000Y-64500000D01*
X78650000Y-69500000D02*
X78650000Y-66000000D01*
X88340000Y-62190000D02*
X88340000Y-60950000D01*
X80150000Y-64500000D02*
X86650000Y-64500000D01*
X86650000Y-64500000D02*
X88650000Y-62500000D01*
X88650000Y-62500000D02*
X88340000Y-62190000D01*
%TO.N,Net-(J1-Pin_4)*%
X81750000Y-66150000D02*
X82150000Y-65750000D01*
X87400000Y-65750000D02*
X90880000Y-62270000D01*
X90880000Y-62270000D02*
X90880000Y-60950000D01*
X81750000Y-69500000D02*
X81750000Y-66150000D01*
X82150000Y-65750000D02*
X87400000Y-65750000D01*
%TO.N,Net-(J1-Pin_10)*%
X106120000Y-63630000D02*
X106120000Y-60950000D01*
X100250000Y-69500000D02*
X106120000Y-63630000D01*
%TO.N,Net-(J1-Pin_22)*%
X137000000Y-69500000D02*
X137000000Y-62850000D01*
X136600000Y-62450000D02*
X136600000Y-60950000D01*
X137000000Y-62850000D02*
X136600000Y-62450000D01*
%TO.N,Net-(J1-Pin_13)*%
X109400000Y-66750000D02*
X113740000Y-62410000D01*
X113740000Y-62410000D02*
X113740000Y-60950000D01*
X109400000Y-69500000D02*
X109400000Y-66750000D01*
%TO.N,Net-(J1-Pin_18)*%
X124650000Y-65500000D02*
X126440000Y-63710000D01*
X124650000Y-69500000D02*
X124650000Y-65500000D01*
X126440000Y-63710000D02*
X126440000Y-60950000D01*
%TO.N,Net-(J1-Pin_2)*%
X78900000Y-63250000D02*
X85650000Y-63250000D01*
X75550000Y-69500000D02*
X75550000Y-66600000D01*
X75550000Y-66600000D02*
X78900000Y-63250000D01*
X85650000Y-63250000D02*
X85800000Y-63100000D01*
X85800000Y-63100000D02*
X85800000Y-60950000D01*
%TO.N,Net-(J1-Pin_16)*%
X118550000Y-64600000D02*
X121360000Y-61790000D01*
X121360000Y-61790000D02*
X121360000Y-60950000D01*
X118550000Y-69500000D02*
X118550000Y-64600000D01*
%TO.N,Net-(J1-Pin_12)*%
X111200000Y-62450000D02*
X111200000Y-60950000D01*
X106350000Y-67300000D02*
X111200000Y-62450000D01*
X106350000Y-69500000D02*
X106350000Y-67300000D01*
D15*
%TO.N,Net-(J5-Pin_1)*%
X102845000Y-86000000D02*
X113425000Y-86000000D01*
D17*
X113425000Y-86000000D02*
X113725000Y-86300000D01*
D15*
%TO.N,Net-(J6-Pin_1)*%
X144250000Y-84250000D02*
X149975000Y-84250000D01*
X87750000Y-89500000D02*
X87750000Y-82500000D01*
X87650000Y-89600000D02*
X87750000Y-89500000D01*
X142500000Y-82500000D02*
X144250000Y-84250000D01*
X87750000Y-82500000D02*
X142500000Y-82500000D01*
X81875000Y-89600000D02*
X87650000Y-89600000D01*
%TO.N,Net-(J7-Pin_1)*%
X81875000Y-84400000D02*
X77090000Y-84400000D01*
X150650000Y-56250000D02*
X150650000Y-57250000D01*
X72350000Y-79660000D02*
X149250000Y-79660000D01*
X151990000Y-79660000D02*
X149250000Y-79660000D01*
X152900000Y-65500000D02*
X153150000Y-65750000D01*
X150650000Y-57250000D02*
X149150000Y-58750000D01*
X77090000Y-84400000D02*
X72350000Y-79660000D01*
X149150000Y-65500000D02*
X152900000Y-65500000D01*
X153150000Y-78500000D02*
X151990000Y-79660000D01*
X153150000Y-65750000D02*
X153150000Y-78500000D01*
X149150000Y-58750000D02*
X149150000Y-65500000D01*
%TO.N,Net-(Q1-B)*%
X76900000Y-87000000D02*
X76400000Y-87500000D01*
X82400000Y-99500000D02*
X74400000Y-99500000D01*
X76400000Y-91000000D02*
X82400000Y-97000000D01*
X76400000Y-87500000D02*
X76400000Y-91000000D01*
X82400000Y-97000000D02*
X82400000Y-99500000D01*
X74070000Y-99830000D02*
X74070000Y-102250000D01*
X81875000Y-87000000D02*
X76900000Y-87000000D01*
X74400000Y-99500000D02*
X74070000Y-99830000D01*
%TO.N,Net-(Q2-G)*%
X92685000Y-89655000D02*
X92685000Y-86000000D01*
X89420000Y-92920000D02*
X89420000Y-96750000D01*
X89495000Y-92845000D02*
X97185000Y-92845000D01*
X89420000Y-92920000D02*
X92685000Y-89655000D01*
X97185000Y-92845000D02*
X101590000Y-97250000D01*
X89420000Y-92920000D02*
X89495000Y-92845000D01*
%TO.N,Net-(Q2-D)*%
X89900000Y-102250000D02*
X84230000Y-102250000D01*
X91960000Y-96750000D02*
X91960000Y-100190000D01*
X91960000Y-100190000D02*
X89900000Y-102250000D01*
%TD*%
M02*
